<?xml version="1.0" encoding="UTF-8"?><svg id="Layer_1" xmlns="http://www.w3.org/2000/svg" viewBox="0 0 185.14 155.48"><path d="M155.2,155.48h-17.75l-10.32-20.4-2.74-5.42-2.75-5.44c1.81-.45,3.51-1.16,5.06-2.1,2.49-1.52,4.65-3.55,6.23-6l14.19-2.02.88,4.52,1.15,5.91,6.04,30.96Z" fill="#a5a5a5" fill-rule="evenodd"/><polygon points="45.76 155.48 63.51 155.48 82.38 118.16 53.78 114.1 45.76 155.48" fill="#a5a5a5" fill-rule="evenodd"/><path d="M40.89,67.74c.16.24.32.48.49.72-.69.25-1.38.5-2.09.73-1.28.42-2.57.79-3.84,1.11-2.08.52-4.14.9-6.16,1.15-13.88,1.74-25.79-2.65-28.65-11.35-3.3-10.15,6.69-22.65,22.62-28.9,1.1-.43,2.22-.83,3.37-1.2.87-.28,1.74-.54,2.6-.78,2.11-.58,4.21-1.02,6.27-1.33-.2,1.12-.31,2.28-.31,3.45,0,2.46.43,4.76,1.23,6.95.91,2.19,2.08,4.22,3.69,5.99l2.94,3.26-2.3,3.8c-.7,1.18-1.34,2.51-1.71,3.9-.32,1.34-.59,2.73-.59,4.22,0,3.1.86,5.93,2.46,8.29Z" fill="#a5a5a5" fill-rule="evenodd"/><path d="M181.02,74.48c2.57-4.44,4.12-9.46,4.12-14.81,0-8.07-3.21-15.29-8.5-20.48-5.24-5.29-12.46-8.61-20.48-8.61-2.99,0-5.99.54-8.82,1.44-.96.32-1.93.7-2.83,1.07-3-3.64-6.74-6.74-10.85-9.09-5.67-3.21-12.19-5.03-19.03-5.03-3.9,0-7.7.59-11.33,1.66-2.19.7-4.38,1.6-6.52,2.62-1.5-.96-3.15-1.76-4.87-2.46-2.73-1.07-5.56-1.66-8.55-1.82-2.14-4.87-5.4-9.09-9.52-12.4-5.4-4.12-12.03-6.58-19.25-6.58-8.66,0-16.52,3.53-22.14,9.14-5.74,5.64-9.16,13.44-9.19,22.05,0,.05,0,.09,0,.14,0,3.96.69,7.65,2.03,11.18.86,2.25,1.92,4.44,3.37,6.36-.48,1.07-.8,2.03-1.07,3.1-.75,2.41-1.07,4.92-1.07,7.48,0,4.25.99,8.33,2.77,11.99.48.99,1.02,1.95,1.61,2.87,1.87,2.89,4.33,5.45,7.17,7.38-.16.64-.27,1.18-.32,1.76-.43,2.3-.64,4.6-.64,6.79,0,10.53,4.22,20.05,11.12,26.95,1.32,1.32,2.74,2.55,4.25,3.67,6.34,4.73,14.19,7.55,22.7,7.55.69,0,1.38-.02,2.06-.06,3.38-.2,6.66-.89,9.86-1.91,1.71-.59,3.42-1.34,5.08-2.09,2.19,2.89,4.97,5.45,8.02,7.48,4.87,3.1,10.59,4.92,16.79,4.92,3.54,0,6.96-.59,10.16-1.69,1.98-.68,3.87-1.54,5.67-2.59,3.42-2.14,6.42-4.87,8.88-8.07,1.44.21,2.94.27,4.28.27,1.08,0,2.15-.05,3.21-.16,7.32-.74,13.86-3.97,18.82-8.93,5.67-5.61,9.09-13.42,9.09-22.03,0-3.05-.43-6.04-1.23-8.88-.27-.96-.64-1.92-1.07-2.89,2.46-2.14,4.6-4.6,6.26-7.33ZM170.81,68.28c-1.6,2.67-3.8,4.87-6.52,6.31l-5.72,3.05,3.48,5.51c1.02,1.5,1.82,3.15,2.35,4.92.48,1.76.75,3.53.75,5.51,0,5.29-2.09,10.1-5.61,13.58-3.48,3.42-8.23,5.61-13.58,5.61-1.02,0-1.87-.05-2.67-.16-.96-.16-1.87-.38-2.73-.59l-4.6-1.34-2.3,4.22c-.22.42-.46.82-.72,1.22-1.58,2.45-3.75,4.48-6.23,6-1.55.94-3.26,1.65-5.06,2.1-1.5.38-3.07.57-4.67.57-3.8,0-7.33-1.07-10.32-3-3.1-1.98-5.51-4.76-7.06-8.13l-2.99-6.74-5.93,4.44c-2.19,1.6-4.65,2.89-7.33,3.69-2.57.91-5.29,1.34-8.18,1.34-7.17,0-13.79-2.89-18.45-7.7-4.81-4.65-7.7-11.18-7.7-18.45,0-1.66.16-3.26.43-4.76.27-1.5.7-3,1.23-4.49l1.98-5.19-5.13-2.3c-2.46-1.11-4.58-2.87-6.14-5.06-.17-.23-.33-.47-.49-.72-1.6-2.35-2.46-5.19-2.46-8.29,0-1.5.27-2.89.59-4.22.37-1.39,1.02-2.73,1.71-3.9l2.3-3.8-2.94-3.26c-1.6-1.76-2.78-3.8-3.69-5.99-.8-2.19-1.23-4.49-1.23-6.95,0-1.17.11-2.33.31-3.45.72-3.94,2.64-7.49,5.3-10.24,3.53-3.53,8.39-5.67,13.79-5.67,4.49,0,8.66,1.5,11.92,4.06,3.31,2.57,5.83,6.26,6.84,10.59l1.34,5.13,5.29-.7c.27,0,.64-.11,1.07-.11h1.07c1.92,0,3.8.37,5.45.96,1.76.7,3.37,1.71,4.76,2.94l3.47,3.15,3.9-2.62c2.09-1.44,4.44-2.57,7-3.26,2.51-.8,5.13-1.18,7.91-1.18,4.81,0,9.36,1.23,13.21,3.42,4.06,2.3,7.43,5.56,9.78,9.62l3.37,5.56,5.29-3.8c1.39-1.02,2.99-1.82,4.7-2.35,1.55-.53,3.31-.8,5.19-.8,4.71,0,8.98,1.87,12.08,4.92,2.99,3.1,4.97,7.33,4.97,12.14,0,3.15-.91,6.15-2.41,8.61Z" fill="#a5a5a5" fill-rule="evenodd"/></svg>