<?xml version="1.0" encoding="UTF-8"?><svg id="Layer_1" xmlns="http://www.w3.org/2000/svg" viewBox="0 0 185.39 132.42"><path d="M0,16.51C0,7.42,7.42,0,16.6,0h152.19c9.18,0,16.6,7.42,16.6,16.6v26.66c0,2.38-1.24,4.59-3.27,5.74-6,3.44-9.97,9.89-9.97,17.21s3.97,13.77,9.97,17.21c2.03,1.15,3.27,3.35,3.27,5.74v26.66c0,9.18-7.42,16.6-16.6,16.6H16.51c-9.09,0-16.51-7.42-16.51-16.6v-26.66c0-2.38,1.24-4.59,3.27-5.74,6-3.44,9.97-9.89,9.97-17.21s-3.97-13.77-9.97-17.21c-2.03-1.15-3.27-3.35-3.27-5.74v-26.75ZM132.42,6.62c3.62,0,6.62,3,6.62,6.62v6.62c0,3.62-3,6.62-6.62,6.62s-6.62-3-6.62-6.62v-6.62c0-3.62,3-6.62,6.62-6.62ZM139.04,46.35c0-3.62-3-6.62-6.62-6.62s-6.62,3-6.62,6.62v6.62c0,3.62,3,6.62,6.62,6.62s6.62-3,6.62-6.62v-6.62ZM132.42,72.83c3.62,0,6.62,3,6.62,6.62v6.62c0,3.62-3,6.62-6.62,6.62s-6.62-3-6.62-6.62v-6.62c0-3.62,3-6.62,6.62-6.62ZM139.04,112.56c0-3.62-3-6.62-6.62-6.62s-6.62,3-6.62,6.62v6.62c0,3.62,3,6.62,6.62,6.62s6.62-3,6.62-6.62v-6.62ZM39.73,66.21c0-3.62,3-6.62,6.62-6.62h46.35c3.62,0,6.62,3,6.62,6.62s-3,6.62-6.62,6.62h-46.35c-3.62,0-6.62-3-6.62-6.62ZM46.35,86.07c-3.62,0-6.62,3-6.62,6.62s3,6.62,6.62,6.62h26.48c3.62,0,6.62-3,6.62-6.62s-3-6.62-6.62-6.62h-26.48Z" fill="#fff" fill-rule="evenodd"/></svg>