<?xml version="1.0" encoding="UTF-8"?><svg id="Layer_1" xmlns="http://www.w3.org/2000/svg" viewBox="0 0 184.8 141.56"><path d="M.77,66.06C13.56,27.71,49.76,0,92.4,0s78.84,27.62,91.63,65.97c1.03,3.09,1.03,6.43,0,9.52-12.78,38.35-48.99,66.06-91.63,66.06S13.56,113.93.77,75.58c-1.03-3.09-1.03-6.43,0-9.52ZM137.44,70.78c0,24.88-20.16,45.04-45.04,45.04s-45.04-20.16-45.04-45.04,20.16-45.04,45.04-45.04,45.04,20.16,45.04,45.04Z" fill="#fff" fill-rule="evenodd"/><path d="M92.4,96.52c14.24,0,25.74-11.5,25.74-25.74s-11.5-25.74-25.74-25.74-25.74,11.5-25.74,25.74,11.5,25.74,25.74,25.74Z" fill="#fff"/></svg>