<?xml version="1.0" encoding="UTF-8"?><svg id="Layer_1" xmlns="http://www.w3.org/2000/svg" viewBox="0 0 183.67 185.14"><path d="M32.37,9.87v7.58c-9.17,1.32-18.16,2.91-27.15,4.76C1.78,23.01-.52,26.27.1,29.8c4.5,26.63,26.71,47.26,54.13,49.37,6.88,5.64,15.17,9.79,24.16,11.9-.88,10.32-4.32,19.84-9.78,27.95h-6.52c-9.08,0-16.49,7.41-16.49,16.57v23.1h-6.61c-11.02,0-19.84,8.9-19.84,19.84,0,3.61,2.91,6.61,6.61,6.61h132.24c3.62,0,6.61-3,6.61-6.61,0-10.93-8.9-19.84-19.84-19.84h-6.61v-23.1c0-9.17-7.4-16.57-16.57-16.57h-6.52c-5.47-8.11-8.9-17.63-9.79-27.95,8.99-2.12,17.28-6.26,24.16-11.9,27.42-2.12,49.64-22.75,54.13-49.37.62-3.53-1.68-6.79-5.11-7.58-8.9-1.85-17.99-3.44-27.07-4.76v-7.58c0-3.35-2.56-6.17-5.82-6.52C127.94,1.15,110.04,0,91.88,0s-36.15,1.15-53.78,3.35c-3.26.35-5.73,3.17-5.73,6.52ZM32.37,33.06c0,10.58,2.73,20.45,7.49,29.01-11.9-5.29-21.25-15.61-25.22-28.21,5.82-1.15,11.73-2.2,17.72-3.09v2.29ZM151.39,33.06v-2.29c5.91.88,11.81,1.94,17.63,3.09-3.97,12.61-13.22,22.92-25.21,28.21,4.76-8.55,7.58-18.43,7.58-29.01Z" fill="#fff" fill-rule="evenodd"/></svg>