<?xml version="1.0" encoding="UTF-8"?><svg id="Layer_1" xmlns="http://www.w3.org/2000/svg" viewBox="0 0 185.28 154.29"><path d="M123.3,53.23c1.51,0,2.74-1.1,2.74-2.62s-1.23-2.62-2.74-2.62h-51.28c-1.51,0-2.74,1.1-2.74,2.62s1.23,2.62,2.74,2.62h51.28Z" fill="#a5a5a5"/><path d="M29.04,53.23h27.82c1.51,0,2.74-1.1,2.74-2.62s-1.23-2.62-2.74-2.62h-27.82c-1.51,0-2.74,1.1-2.74,2.62,0,1.51,1.23,2.62,2.74,2.62Z" fill="#a5a5a5"/><path d="M73.89,107.48c0-1.51-1.23-2.62-2.74-2.62h-27.82c-1.51,0-2.74,1.1-2.74,2.62s1.23,2.62,2.74,2.62h27.82c1.51,0,2.74-1.1,2.74-2.62Z" fill="#a5a5a5"/><path d="M42.03,69.45c0-1.51-1.23-2.62-2.74-2.62H2.74c-1.51,0-2.74,1.1-2.74,2.62s1.23,2.62,2.74,2.62h36.55c1.51,0,2.74-1.1,2.74-2.62Z" fill="#a5a5a5"/><path d="M123.3,91.26c1.51,0,2.74-1.45,2.74-2.97s-1.23-2.97-2.74-2.97H56.86c-1.51,0-2.74,1.45-2.74,2.97s1.23,2.97,2.74,2.97h66.44Z" fill="#a5a5a5"/><path d="M44.43,88.29c0-1.51-1.23-2.97-2.74-2.97H13.87c-1.51,0-2.74,1.45-2.74,2.97s1.23,2.97,2.74,2.97h27.82c1.51,0,2.74-1.45,2.74-2.97Z" fill="#a5a5a5"/><path d="M176.06,23.49C169.8,8.34,161.17,0,151.77,0c-7.89,0-15.29,5.93-21.16,16.85-1.76-3.28-3.68-6.13-5.73-8.53-4.66-5.44-10-8.32-15.44-8.32s-10.78,2.83-15.44,8.27c-3.97,4.63-7.42,10.77-10.27,18.8h-33.53c-1.51,0-2.74,1.28-2.74,2.79s1.23,2.79,2.74,2.79h81.02c3.15,9.77,5.19,21.63,5.93,34.19H50.2c-1.51,0-2.74,1.1-2.74,2.62s1.23,2.62,2.74,2.62h87.19c.05,1.74.07,3.49.07,5.16,0,9.58-.76,18.56-2.19,27.63h-48.96c-1.51,0-2.74,1.1-2.74,2.62s1.23,2.62,2.74,2.62h47.93c-.75,3.84-1.61,7.33-2.6,10.12H50.2c-1.51,0-2.74,1.28-2.74,2.79s1.23,2.79,2.74,2.79h33.06c2.85,8.02,6.35,14.9,10.39,19.76,4.75,5.71,10.21,8.73,15.78,8.73,7.92,0,15.3-5.92,21.17-16.85,5.87,10.92,13.27,16.86,21.16,16.86,9.4,0,18.03-8.34,24.29-23.49,5.95-14.38,9.22-33.43,9.22-53.66,0-20.22-3.27-39.28-9.22-53.66ZM109.44,5.39c7.25,0,14.54,8.42,19.85,21.68h-39.71c5.32-13.26,12.61-21.68,19.85-21.68ZM109.44,148.8c-7.51,0-14.99-8.7-20.35-23h40.7c-.37,1.05-.74,1.96-1.13,2.9-5.28,12.77-12.29,20.1-19.22,20.1ZM170.99,128.71c-5.28,12.77-12.29,20.1-19.22,20.1-3.26,0-6.52-1.57-9.67-4.67-3.11-3.06-5.97-7.43-8.51-13.02.04-.1.09-.21.13-.31,2.75-6.65,4.93-14.31,6.48-22.62.06-.2.1-.4.11-.62,1.72-9.48,2.63-19.79,2.63-30.42,0-17.39-2.51-34.38-7.06-47.88-.04-.17-.09-.33-.16-.48-.67-1.96-1.38-3.84-2.13-5.62,2.54-5.58,5.4-9.95,8.51-13.01,3.15-3.1,6.4-4.67,9.67-4.67,6.93,0,13.94,7.33,19.22,20.1,5.68,13.73,8.8,32.04,8.8,51.56,0,19.52-3.13,37.84-8.8,51.57Z" fill="#a5a5a5"/></svg>