<?xml version="1.0" encoding="UTF-8"?><svg id="Layer_1" xmlns="http://www.w3.org/2000/svg" viewBox="0 0 185.14 145.47"><path d="M26.45,0C11.81,0,0,11.84,0,26.45v92.57c0,14.61,11.81,26.45,26.45,26.45h132.24c14.64,0,26.45-11.84,26.45-26.45V26.45c0-14.61-11.81-26.45-26.45-26.45H26.45ZM62.77,26.45c-10.93,0-19.75,8.88-19.75,19.84s8.82,19.84,19.75,19.84,19.92-8.88,19.92-19.84-8.9-19.84-19.92-19.84ZM28.65,103.18c5.11-13.9,18.51-23.83,34.12-23.83s29.09,9.93,34.21,23.83c1.15,3.09-.18,6.56-3.09,8.11-9.26,4.94-19.84,7.73-31.12,7.73s-21.78-2.79-31.03-7.73c-2.91-1.55-4.23-5.02-3.09-8.11ZM119.02,39.67c-3.61,0-6.61,2.96-6.61,6.61s3,6.61,6.61,6.61h33.06c3.61,0,6.61-2.96,6.61-6.61s-3-6.61-6.61-6.61h-33.06ZM112.41,72.73c0-3.65,3-6.61,6.61-6.61h33.06c3.61,0,6.61,2.96,6.61,6.61s-3,6.61-6.61,6.61h-33.06c-3.61,0-6.61-2.96-6.61-6.61ZM119.02,92.57c-3.61,0-6.61,2.96-6.61,6.61s3,6.61,6.61,6.61h33.06c3.61,0,6.61-2.96,6.61-6.61s-3-6.61-6.61-6.61h-33.06Z" fill="#fff" fill-rule="evenodd"/></svg>