<?xml version="1.0" encoding="UTF-8"?><svg id="Layer_1" xmlns="http://www.w3.org/2000/svg" viewBox="0 0 185.14 161.11"><path d="M155.61,4.59C134.48,1.55,113.31,0,92.57,0S50.66,1.55,29.49,4.59C12.42,7.15,0,21.9,0,39.59v81.93c0,17.69,12.42,32.44,29.54,35,21.12,3.05,42.3,4.59,63.04,4.59s41.91-1.55,63.08-4.59c17.06-2.56,29.49-17.31,29.49-35V39.59c0-17.69-12.42-32.44-29.54-35ZM171.9,94.9v26.62c0,11.12-7.64,20.35-18.18,21.95-20.5,2.9-41.04,4.4-61.15,4.4s-40.65-1.5-61.1-4.4c-10.54-1.6-18.22-10.83-18.22-21.95V39.59c0-11.12,7.64-20.35,18.18-21.95,20.5-2.9,41.04-4.4,61.15-4.4s40.65,1.5,61.1,4.4c10.54,1.6,18.22,10.83,18.22,21.95v55.31Z" fill="#a5a5a5"/><path d="M115.18,57.78h-39.67c-3.65,0-6.61-2.96-6.61-6.61s2.96-6.61,6.61-6.61h39.67c3.65,0,6.61,2.96,6.61,6.61s-2.96,6.61-6.61,6.61Z" fill="#a5a5a5"/><path d="M132.24,87.17H52.9c-3.65,0-6.61-2.96-6.61-6.61s2.96-6.61,6.61-6.61h79.35c3.65,0,6.61,2.96,6.61,6.61s-2.96,6.61-6.61,6.61Z" fill="#a5a5a5"/><path d="M56.73,44.56h-3.84c-3.65,0-6.61,2.96-6.61,6.61s2.96,6.61,6.61,6.61h3.84c3.65,0,6.61-2.96,6.61-6.61s-2.96-6.61-6.61-6.61Z" fill="#a5a5a5"/><path d="M46.28,109.94c0-3.65,2.96-6.61,6.61-6.61h39.67c3.65,0,6.61,2.96,6.61,6.61,0,3.65-2.96,6.61-6.61,6.61h-39.67c-3.65,0-6.61-2.96-6.61-6.61Z" fill="#a5a5a5"/><path d="M111.34,103.33h1.26s1.31,0,1.31,0h1.26c3.65,0,6.61,2.96,6.61,6.61,0,3.65-2.96,6.61-6.61,6.61h-1.26s-1.31,0-1.31,0h-1.26c-3.65,0-6.61-2.96-6.61-6.61,0-3.65,2.96-6.61,6.61-6.61Z" fill="#a5a5a5"/></svg>