<?xml version="1.0" encoding="UTF-8"?><svg id="Layer_1" xmlns="http://www.w3.org/2000/svg" viewBox="0 0 179.1 185.14"><path d="M89.55,185.14c-.58,0-1.15-.07-1.72-.22C36.12,171.62,0,124.99,0,71.51c0-12.54,1.97-24.85,5.86-36.61.95-2.87,3.57-4.83,6.69-4.73h1.23c26.55,0,51.78-10.04,71.04-28.28,2.66-2.52,6.82-2.52,9.47,0,19.26,18.24,44.48,28.29,71.04,28.29h1.23c2.97-.1,5.74,1.84,6.69,4.71,3.89,11.76,5.86,24.08,5.86,36.62,0,53.47-36.12,100.11-87.83,113.41-.57.14-1.14.22-1.72.22ZM17.52,43.9c-2.48,8.94-3.74,18.21-3.74,27.61,0,46.59,31.06,87.3,75.77,99.61,44.7-12.31,75.77-53.02,75.77-99.61,0-9.41-1.25-18.68-3.74-27.61-26.6-.84-51.84-10.58-72.03-27.76-20.2,17.18-45.44,26.92-72.03,27.76ZM82.66,126.62c-1.82,0-3.58-.72-4.87-2.02l-20.67-20.67c-2.69-2.69-2.69-7.05,0-9.74,2.69-2.7,7.05-2.7,9.74,0l14.92,14.91,29.71-41.6c2.22-3.09,6.52-3.81,9.61-1.6,3.1,2.21,3.81,6.52,1.6,9.61l-34.44,48.22c-1.18,1.65-3.02,2.7-5.04,2.86-.19.01-.38.02-.57.02Z" fill="#a5a5a5"/></svg>