<?xml version="1.0" encoding="UTF-8"?><svg id="Layer_1" xmlns="http://www.w3.org/2000/svg" viewBox="0 0 176.48 185.65"><path d="M88.28,105.1c9.28,0,16.84-7.56,16.84-16.84V16.84c0-9.28-7.56-16.84-16.84-16.84s-16.84,7.54-16.84,16.84v71.42c0,9.28,7.54,16.84,16.84,16.84Z" fill="#0df"/><path d="M150.78,35.14c-3.15-3.25-7.36-5.06-11.87-5.09h-.14c-4.49,0-8.72,1.77-11.92,4.97-6.45,6.45-6.51,17.07,0,23.81,10.33,10.3,16.03,24,16.03,38.57s-5.68,28.26-16.05,38.59c-10.3,10.33-24,16.03-38.57,16.03s-28.26-5.68-38.59-16.05c-10.33-10.3-16.03-24-16.03-38.57s5.68-28.26,16.16-38.71c6.38-6.6,6.33-17.21-.13-23.66h0c-3.22-3.22-7.44-4.97-11.92-4.97h-.14c-4.5.04-8.72,1.84-11.72,4.97C9.2,51.65,0,73.82,0,97.39s9.19,45.74,25.86,62.38c16.64,16.68,38.8,25.88,62.38,25.88s45.74-9.19,62.36-25.86c16.68-16.64,25.88-38.8,25.88-62.38s-9.19-45.74-25.74-62.23l.04-.04Z" fill="#0df"/></svg>