<?xml version="1.0" encoding="UTF-8"?><svg id="Layer_1" xmlns="http://www.w3.org/2000/svg" viewBox="0 0 185.39 132.42"><path d="M168.79,132.42H16.51c-9.1,0-16.51-7.45-16.51-16.6v-26.66c0-2.36,1.26-4.55,3.31-5.73,6.13-3.54,9.93-10.14,9.93-17.22s-3.81-13.68-9.93-17.22c-2.05-1.18-3.31-3.37-3.31-5.73v-26.75C0,7.4,7.45,0,16.6,0h152.19c9.15,0,16.6,7.44,16.6,16.59v26.66c0,2.36-1.26,4.55-3.31,5.73-6.13,3.54-9.93,10.14-9.93,17.22s3.81,13.68,9.93,17.22c2.05,1.18,3.31,3.37,3.31,5.73v26.66c0,9.15-7.45,16.6-16.6,16.6ZM139.04,119.17h29.75c1.91,0,3.35-1.44,3.35-3.36v-23.11c-8.25-6.21-13.24-16.04-13.24-26.5s4.99-20.29,13.24-26.5v-23.12c0-1.91-1.44-3.35-3.35-3.35h-29.75v6.62c0,3.66-2.96,6.62-6.62,6.62s-6.62-2.96-6.62-6.62v-6.62H16.6c-1.88,0-3.35,1.43-3.35,3.27v23.21c8.25,6.21,13.24,16.04,13.24,26.5s-4.99,20.29-13.24,26.5v23.11c0,1.88,1.43,3.36,3.26,3.36h109.29v-6.62c0-3.66,2.96-6.62,6.62-6.62s6.62,2.96,6.62,6.62v6.62h0ZM178.76,43.26h.05-.05ZM79.45,99.32h-26.49c-3.66,0-6.62-2.96-6.62-6.62s2.96-6.62,6.62-6.62h26.49c3.66,0,6.62,2.96,6.62,6.62s-2.96,6.62-6.62,6.62ZM132.42,92.69c-3.66,0-6.62-2.96-6.62-6.62v-6.62c0-3.66,2.96-6.62,6.62-6.62s6.62,2.96,6.62,6.62v6.62c0,3.66-2.96,6.62-6.62,6.62ZM99.32,79.45h-46.35c-3.66,0-6.62-2.96-6.62-6.62s2.96-6.62,6.62-6.62h46.35c3.66,0,6.62,2.96,6.62,6.62s-2.96,6.62-6.62,6.62ZM132.42,59.58c-3.66,0-6.62-2.96-6.62-6.62v-6.62c0-3.66,2.96-6.62,6.62-6.62s6.62,2.96,6.62,6.62v6.62c0,3.66-2.96,6.62-6.62,6.62Z" fill="#a5a5a5"/></svg>