<?xml version="1.0" encoding="UTF-8"?><svg id="Layer_1" xmlns="http://www.w3.org/2000/svg" viewBox="0 0 185.32 185.14"><path d="M83.35,185.14c-.12,0-.24,0-.35,0-15.38-.49-29.38-1.56-42.85-3.25-1.87-.24-3.56-1.23-4.67-2.75s-1.56-3.43-1.22-5.28c2.47-13.69,4.33-28.05,5.54-42.75-.88.46-1.74,1.08-2.45,1.6-3.88,2.94-8.61,4.58-13.27,4.58-13.27,0-24.07-12.32-24.07-27.46s10.76-27.46,23.98-27.46c4.8,0,9.44,1.59,13.4,4.61,1.04.78,2.5,1.79,3.79,2.14-.3-15.06-1.26-29.62-2.86-43.19-.25-2.09.48-4.17,1.96-5.66,1.48-1.48,3.53-2.23,5.66-1.97,11.87,1.39,24.07,2.28,36.26,2.67-.31-.97-1-2.16-2.1-3.63-2.95-3.89-4.58-8.61-4.58-13.28,0-13.27,12.32-24.07,27.46-24.07s27.46,10.8,27.46,24.07c0,4.67-1.64,9.39-4.6,13.3-.86,1.14-1.47,2.13-1.84,2.96,16.81-1.11,33.59-3.15,49.88-6.09,1.84-.31,3.76.11,5.28,1.23s2.51,2.81,2.74,4.67c2.03,16.23,3.15,32.51,3.44,49.79,0,7.23-5.78,13.02-12.9,13.02-5.55,0-10.02-2.87-12.9-5.03-1.57-1.2-3.35-1.83-5.04-1.83-5.61,0-10.34,6.29-10.34,13.73s4.73,13.73,10.34,13.73c1.69,0,3.47-.64,5.01-1.81,2.91-2.19,7.38-5.06,12.93-5.06,3.23,0,6.35,1.35,8.55,3.7,2.21,2.36,3.36,5.58,3.15,8.84-1.14,15.15-2.95,29.91-5.4,43.92-.5,2.85-2.73,5.08-5.59,5.58-16.49,2.87-33.47,4.84-50.46,5.86-3.28.21-6.59-.99-9.01-3.28-2.45-2.3-3.85-5.53-3.85-8.87,0-5.55,2.87-10.02,5.03-12.9,1.19-1.57,1.83-3.35,1.83-5.04,0-5.61-6.29-10.34-13.73-10.34s-13.73,4.73-13.73,10.34c0,1.69.64,3.47,1.81,5.01,2.19,2.91,5.06,7.38,5.06,12.93,0,3.46-1.37,6.69-3.86,9.11-2.38,2.31-5.6,3.61-8.89,3.61ZM48.99,169.09c10.5,1.13,21.43,1.88,33.19,2.28-.39-1.24-1.35-2.61-2.11-3.63-2.94-3.88-4.58-8.61-4.58-13.27,0-13.27,12.32-24.07,27.46-24.07s27.46,10.8,27.46,24.07c0,4.67-1.64,9.39-4.6,13.3-.62.82-1.38,1.91-1.84,2.96,14.13-.91,28.24-2.5,42.03-4.74,1.82-11.25,3.23-22.95,4.2-34.9-.88.46-1.75,1.08-2.45,1.6-3.88,2.94-8.61,4.58-13.27,4.58-13.27,0-24.07-12.32-24.07-27.46s10.8-27.46,24.07-27.46c4.67,0,9.4,1.64,13.31,4.61,1.04.78,2.5,1.79,3.79,2.14-.25-13.8-1.07-27.03-2.48-40.12-15.23,2.48-30.81,4.22-46.4,5.18-3.29.22-6.6-.99-9.03-3.28-2.45-2.3-3.85-5.53-3.85-8.87,0-5.56,2.88-10.03,5.04-12.91,1.19-1.56,1.83-3.34,1.83-5.03,0-5.61-6.29-10.34-13.73-10.34s-13.73,4.73-13.73,10.34c0,1.69.64,3.47,1.81,5.01,2.18,2.9,5.06,7.38,5.06,12.93,0,3.45-1.37,6.68-3.85,9.1-2.45,2.39-5.79,3.75-9.24,3.62-10.1-.29-20.21-.92-30.15-1.88,1.14,11.81,1.83,24.25,2.06,37.09,0,7.24-5.79,13.03-12.9,13.03-5.54,0-10.02-2.87-12.9-5.03-1.59-1.21-3.35-1.83-5.13-1.83-5.56,0-10.25,6.29-10.25,13.73s4.73,13.73,10.34,13.73c1.69,0,3.47-.64,5.01-1.81,2.91-2.19,7.38-5.06,12.93-5.06,3.23,0,6.35,1.35,8.56,3.7,2.21,2.36,3.36,5.58,3.15,8.83-1.04,13.66-2.62,27.02-4.71,39.87Z" fill="#a5a5a5"/></svg>