<?xml version="1.0" encoding="UTF-8"?><svg id="Layer_1" xmlns="http://www.w3.org/2000/svg" viewBox="0 0 172.07 185.14"><path d="M86.04,185.14c-19.63,0-35.6-15.97-35.6-35.6,0-.89.04-1.78.1-2.66-15.67-2.38-31.07-6.34-45.88-11.81-2.22-.82-3.88-2.68-4.45-4.97s.04-4.72,1.62-6.47c12.97-14.4,20.12-33.02,20.12-52.41v-7.12C21.95,28.75,50.7,0,86.04,0s64.1,28.75,64.1,64.09v7.12c0,19.4,7.14,38.02,20.11,52.41,1.58,1.76,2.19,4.18,1.62,6.47s-2.23,4.16-4.45,4.97c-14.8,5.47-30.2,9.43-45.87,11.81.07.88.1,1.77.1,2.66,0,19.63-15.97,35.6-35.61,35.6ZM64.7,148.58c-.02.32-.02.64-.02.96,0,11.78,9.58,21.36,21.36,21.36s21.36-9.58,21.36-21.36c0-.32,0-.64-.02-.96-14.15,1.27-28.52,1.27-42.68,0ZM59.88,133.77c17.25,2.03,35.08,2.03,52.33,0,.09-.01.17-.02.26-.03,13.8-1.65,27.41-4.6,40.6-8.8-11.14-15.61-17.18-34.34-17.18-53.73v-6.66c0-27.95-22.36-50.31-49.85-50.31s-49.84,22.36-49.84,49.85v7.12c0,19.39-6.04,38.12-17.18,53.73,13.19,4.19,26.8,7.15,40.6,8.8.09,0,.18.02.27.03Z" fill="#a5a5a5"/></svg>