<?xml version="1.0" encoding="UTF-8"?><svg id="Layer_1" xmlns="http://www.w3.org/2000/svg" viewBox="0 0 185.14 161.94"><path d="M116.11,23.71c2.01,8.5,9.64,14.84,18.76,14.84,10.64,0,19.27-8.63,19.27-19.27S145.51,0,134.87,0c-9.31,0-17.07,6.6-18.88,15.37-15.59,1.67-27.76,14.89-27.76,30.91v.1c-16.95.71-32.43,5.54-44.72,13.16-4.56-3.53-10.29-5.64-16.51-5.64-14.92,0-27.01,12.09-27.01,27.01,0,10.82,6.36,20.15,15.55,24.46.89,31.35,35.06,56.57,77.08,56.57s76.23-25.25,77.08-56.63c9.12-4.34,15.42-13.63,15.42-24.4,0-14.92-12.09-27.01-27.01-27.01-6.19,0-11.89,2.09-16.45,5.59-12.4-7.67-28.05-12.5-45.17-13.14v-.07c0-11.48,8.53-21,19.59-22.56v-.02ZM42.43,98.05c.45-9.79,6.96-17.31,14.52-17.31s13.35,7.94,12.89,17.74c-.45,9.79-6.1,13.35-13.67,13.35s-14.2-3.98-13.74-13.78ZM128.33,80.73c7.57,0,14.08,7.52,14.52,17.31.45,9.79-6.18,13.78-13.74,13.78s-13.22-3.55-13.67-13.35c-.45-9.79,5.32-17.74,12.89-17.74ZM119.33,120.71c1.42.14,2.32,1.62,1.77,2.94-4.65,11.12-15.64,18.94-28.46,18.94s-23.8-7.82-28.46-18.94c-.55-1.32.35-2.79,1.77-2.94,8.31-.84,17.3-1.3,26.69-1.3s18.37.46,26.69,1.3h0Z" fill="#a5a5a5"/></svg>