<?xml version="1.0" encoding="UTF-8"?><svg id="Layer_1" xmlns="http://www.w3.org/2000/svg" viewBox="0 0 179.1 185.14"><path d="M94.32,1.89c-2.66-2.52-6.89-2.52-9.55,0C66.31,19.43,41.33,30.18,13.78,30.18c-.46,0-.92,0-1.29,0-3.03-.04-5.7,1.88-6.61,4.74C2.02,46.43,0,58.74,0,71.51c0,54.57,37.29,100.41,87.8,113.41,1.19.29,2.3.29,3.49,0,50.51-13,87.8-58.84,87.8-113.41,0-12.77-2.02-25.07-5.88-36.6-.92-2.86-3.58-4.78-6.61-4.74-.37,0-.83,0-1.29,0-27.55,0-52.53-10.75-71-28.29ZM122.7,75.51c2.2-3.1,1.47-7.4-1.56-9.61-3.12-2.21-7.44-1.5-9.64,1.6l-29.76,41.6-14.88-14.92c-2.66-2.69-7.07-2.69-9.74,0-2.66,2.69-2.66,7.04,0,9.74l20.66,20.66c1.47,1.43,3.4,2.17,5.42,1.99,2.02-.17,3.86-1.21,5.05-2.86l34.44-48.22Z" fill="#fff" fill-rule="evenodd"/></svg>