<?xml version="1.0" encoding="UTF-8"?><svg id="Layer_1" xmlns="http://www.w3.org/2000/svg" viewBox="0 0 185.14 145.46"><path d="M158.69,145.46H26.45c-14.58,0-26.45-11.86-26.45-26.45V26.45C0,11.86,11.87,0,26.45,0h132.24c14.58,0,26.45,11.86,26.45,26.45v92.57c0,14.58-11.87,26.45-26.45,26.45ZM26.45,13.22c-7.29,0-13.22,5.93-13.22,13.23v92.57c0,7.29,5.93,13.23,13.22,13.23h132.24c7.29,0,13.22-5.93,13.22-13.23V26.45c0-7.29-5.93-13.23-13.22-13.23H26.45ZM62.77,119.02c-10.82,0-21.53-2.68-30.98-7.74-2.9-1.55-4.22-5-3.09-8.09,5.2-14.26,18.89-23.84,34.07-23.84s28.97,9.58,34.16,23.84c1.12,3.09-.19,6.54-3.09,8.09-9.45,5.06-20.19,7.74-31.07,7.74ZM43.95,102.32c11.96,4.57,25.81,4.55,37.72,0-4.26-6-11.29-9.75-18.91-9.75s-14.57,3.76-18.82,9.76ZM152.08,105.79h-33.06c-3.65,0-6.61-2.96-6.61-6.61s2.96-6.61,6.61-6.61h33.06c3.65,0,6.61,2.96,6.61,6.61s-2.96,6.61-6.61,6.61ZM152.08,79.34h-33.06c-3.65,0-6.61-2.96-6.61-6.61s2.96-6.61,6.61-6.61h33.06c3.65,0,6.61,2.96,6.61,6.61s-2.96,6.61-6.61,6.61ZM62.77,72.73c-12.74,0-23.1-10.38-23.1-23.14s10.36-23.14,23.1-23.14,23.19,10.38,23.19,23.14-10.4,23.14-23.19,23.14ZM62.77,39.67c-5.44,0-9.87,4.45-9.87,9.92s4.43,9.92,9.87,9.92,9.96-4.45,9.96-9.92-4.47-9.92-9.96-9.92ZM152.08,52.9h-33.06c-3.65,0-6.61-2.96-6.61-6.61s2.96-6.61,6.61-6.61h33.06c3.65,0,6.61,2.96,6.61,6.61s-2.96,6.61-6.61,6.61Z" fill="#a5a5a5"/></svg>