<?xml version="1.0" encoding="UTF-8"?><svg id="Layer_1" xmlns="http://www.w3.org/2000/svg" viewBox="0 0 185.14 171.91"><path d="M141.06,171.91h-35.44c-4.96,0-9.87-.8-14.61-2.37l-27.51-9.15c-3.38-1.13-6.9-1.7-10.43-1.7h-4.75c.24,2.6-.35,5.32-1.78,7.64-2.16,3.5-5.88,5.58-9.95,5.58h-8.03c-11.1,0-20.62-6.72-23.69-16.73-3.23-10.56-4.88-21.62-4.88-32.85,0-14.31,2.62-28.18,7.78-41.21,3.65-9.12,12.7-14.99,23.07-14.99h9.26c4.13,0,7.83,2.11,10.01,5.67,2.87-1.11,5.57-3.17,7.77-6.01,7.63-9.65,16.85-17.35,27.44-22.96,3.9-2.08,9.08-5.82,11.51-11.78,1.54-3.9,2.33-8.04,2.33-12.24v-5.58c0-7.29,5.93-13.22,13.23-13.22,14.58,0,26.45,11.86,26.45,26.45,0,10.88-2.35,21.38-6.98,31.19-.26.54-.12,1.06-.05,1.26.14.39.34.58.4.61h27.62c12.76,0,23.36,9.04,24.65,21.03.44,3.67.66,7.64.66,12.03,0,25.6-8.82,50.62-24.83,70.46-4.57,5.65-11.58,8.88-19.25,8.88ZM35.24,160.28s.01.04.02.05c0-.02-.02-.04-.02-.05ZM43.4,145.46h9.67c4.96,0,9.88.8,14.61,2.37l27.51,9.15c3.39,1.13,6.9,1.7,10.43,1.7h35.44c3.65,0,6.93-1.45,8.96-3.97,14.32-17.75,21.89-39.24,21.89-62.15,0-3.87-.18-7.32-.57-10.54-.57-5.33-5.51-9.29-11.5-9.29h-47.43c-3.65,0-6.61-2.96-6.61-6.61s2.96-6.61,6.61-6.61h6.14c-.21-2.58.25-5.21,1.39-7.57,3.76-7.98,5.68-16.57,5.68-25.49,0-7.29-5.93-13.23-13.22-13.23v5.58c0,5.87-1.1,11.64-3.29,17.17-3.13,7.68-9.21,14.06-17.58,18.53-8.98,4.75-16.79,11.28-23.23,19.43-4.9,6.34-11.56,10.46-18.71,11.66-6.48,11.12-9.92,23.82-9.92,36.73,0,7.97,1.25,15.73,3.72,23.14ZM30.86,79.34c-4.93,0-9.17,2.62-10.79,6.67-4.54,11.45-6.84,23.67-6.84,36.31,0,9.92,1.44,19.68,4.29,28.98,1.35,4.42,5.79,7.38,11.05,7.38h5.94c-.59-1.3-1.15-2.55-1.7-3.82-.07-.15-.14-.31-.2-.46-4.08-10.17-6.15-20.96-6.15-32.08,0-15.07,3.97-29.88,11.49-42.98h-7.08Z" fill="#a5a5a5"/></svg>