<?xml version="1.0" encoding="UTF-8"?><svg id="Layer_1" xmlns="http://www.w3.org/2000/svg" viewBox="0 0 185.14 153.45"><path d="M142.11,111.36c-.84,1.3-1.85,2.5-2.97,3.58,1.11-1.08,2.12-2.28,2.96-3.58h.01Z" fill="#fff" fill-rule="evenodd"/><path d="M165.9,153.44h-18.97l-11.03-21.81v-.02s.01-.01.02-.01c2.12-.73,4.14-1.65,6.06-2.77,3.66-2.29,6.86-5.21,9.49-8.63,1.54.22,3.14.29,4.58.29,1.13,0,2.27-.05,3.38-.17v.03s6.47,33.09,6.47,33.09Z" fill="#fff" fill-rule="evenodd"/><polygon points="165.9 153.45 165.9 153.44 165.91 153.44 165.9 153.45" fill="#fff" fill-rule="evenodd"/><path d="M82.55,124.43l-14.67,29.01h-18.98l7.17-37.03h.01c6.78,5.07,15.17,8.08,24.27,8.08.74,0,1.46-.02,2.19-.06Z" fill="#fff" fill-rule="evenodd"/><path d="M31.3,63.59s.01.01.01.02h-.01c-14.84,1.86-27.57-2.83-30.63-12.13-3.53-10.85,7.15-24.21,24.18-30.9v.13c0,4.23.74,8.18,2.17,11.95.92,2.41,2.05,4.75,3.6,6.8-.51,1.14-.86,2.17-1.14,3.31-.8,2.58-1.14,5.26-1.14,8,0,4.54,1.06,8.91,2.96,12.82Z" fill="#fff" fill-rule="evenodd"/><path d="M37.94,17.04c-.21,1.2-.33,2.44-.33,3.69,0,.72.03,1.42.11,2.12-.09-.71-.12-1.42-.12-2.15,0-1.24.12-2.47.33-3.66h.01Z" fill="#fff" fill-rule="evenodd"/><path d="M41.2,49.04c-.06.58-.11,1.15-.11,1.75s.03,1.23.1,1.83c-.07-.61-.11-1.23-.11-1.86,0-.59.04-1.17.12-1.72Z" fill="#fff" fill-rule="evenodd"/><path d="M46.01,38.05l-2.46,4.06c-.75,1.26-1.43,2.68-1.83,4.17-.17.71-.32,1.42-.45,2.16.11-.75.27-1.48.44-2.19.4-1.49,1.09-2.92,1.83-4.17l2.45-4.05.02.02Z" fill="#fff" fill-rule="evenodd"/><path d="M182.56,60.17l.03.05c-1.71,2.85-4.06,5.21-6.97,6.75l-6.12,3.26,3.72,5.89c1.09,1.6,1.95,3.37,2.51,5.26.51,1.88.8,3.77.8,5.89,0,5.66-2.23,10.8-6,14.52-3.72,3.66-8.8,6-14.52,6-1.09,0-2-.05-2.85-.17-1.03-.17-2-.41-2.92-.63l-4.92-1.43-2.46,4.51c-.24.45-.49.88-.77,1.3h-.01c-.84,1.3-1.85,2.5-2.96,3.58-1.12,1.07-2.36,2.02-3.69,2.83-1.66,1-3.49,1.76-5.41,2.25h-.01c-1.6.41-3.27.61-4.98.61-4.06,0-7.84-1.14-11.03-3.21-3.31-2.12-5.89-5.09-7.55-8.69l-3.2-7.21-6.34,4.75c-2.34,1.71-4.97,3.09-7.84,3.94-2.75.97-5.66,1.43-8.74,1.43-7.67,0-14.74-3.09-19.72-8.23-5.14-4.97-8.23-11.95-8.23-19.72,0-1.77.17-3.49.46-5.09s.75-3.21,1.31-4.8l2.12-5.55-5.48-2.46c-2.63-1.19-4.9-3.07-6.56-5.41-.18-.25-.35-.5-.52-.77-.18-.27-.35-.55-.51-.82-.83-1.4-1.42-2.94-1.76-4.59-.06-.32-.13-.66-.17-.99-.03-.2-.05-.4-.07-.6-.06-.6-.1-1.21-.1-1.83s.04-1.18.11-1.75c.02-.18.05-.37.07-.57-.01-.01-.01-.02,0-.03.13-.74.28-1.45.45-2.16.4-1.49,1.08-2.91,1.83-4.17l2.46-4.06-.02-.02h.01s-3.14-3.5-3.14-3.5c-.2-.22-.41-.46-.61-.69,0-.01-.01-.02-.01-.02-.6-.73-1.13-1.5-1.62-2.3-.24-.4-.47-.8-.69-1.22-.21-.42-.42-.84-.62-1.27-.13-.29-.26-.6-.38-.9-.53-1.45-.91-2.95-1.11-4.51-.03-.26-.06-.51-.09-.77-.07-.69-.11-1.4-.11-2.12,0-1.25.12-2.49.33-3.69h-.01v-.03c.77-4.21,2.82-8.01,5.67-10.95,3.77-3.77,8.97-6.06,14.74-6.06,4.8,0,9.26,1.6,12.74,4.34,3.54,2.75,6.23,6.69,7.31,11.32l1.43,5.48,5.66-.75c.29,0,.68-.12,1.14-.12h1.14c2.05,0,4.06.4,5.83,1.03,1.88.75,3.6,1.83,5.09,3.14l3.71,3.37,4.17-2.8c2.23-1.54,4.75-2.75,7.48-3.49,2.68-.86,5.48-1.26,8.46-1.26,5.14,0,10.01,1.31,14.12,3.66,4.34,2.46,7.94,5.94,10.46,10.28l3.6,5.94,5.66-4.06c1.49-1.09,3.2-1.95,5.02-2.51,1.66-.57,3.54-.86,5.55-.86,5.04,0,9.6,2,12.91,5.26,3.2,3.31,5.31,7.84,5.31,12.98,0,3.37-.97,6.57-2.58,9.2Z" fill="#fff" fill-rule="evenodd"/></svg>