<?xml version="1.0" encoding="UTF-8"?><svg id="Layer_1" xmlns="http://www.w3.org/2000/svg" viewBox="0 0 184.14 128.99"><path d="M180.24,20.18c-2.15-7.94-8.21-14.12-16.28-16.28C149.71,0,92,0,92,0c0,0-57.57,0-71.83,3.9C12.24,6.05,6.05,12.24,3.77,20.18,0,34.43,0,64.43,0,64.43c0,0,0,30,3.77,44.39,2.29,7.8,8.47,14.12,16.41,16.28,14.26,3.9,71.83,3.9,71.83,3.9,0,0,57.7,0,71.96-3.9,8.07-2.15,14.12-8.47,16.28-16.28,3.9-14.39,3.9-44.39,3.9-44.39,0,0,0-30-3.9-44.25ZM73.71,92.14v-55.28l47.75,27.57-47.75,27.71Z" fill="#a5a5a5"/></svg>