<?xml version="1.0" encoding="UTF-8"?><svg id="Layer_1" xmlns="http://www.w3.org/2000/svg" viewBox="0 0 148.65 185.14"><path d="M104.09,1.97c-2.09-2.62-6.47-2.62-8.55,0l-43.36,54.41c-1.32,1.66-1.57,3.87-.65,5.78.92,1.91,2.81,3.1,4.93,3.1h20.22v77.39c0,1.51,1.22,2.73,2.73,2.73h40.81c1.51,0,2.73-1.22,2.73-2.73v-77.39h20.22c2.12,0,4.01-1.19,4.93-3.1.92-1.91.67-4.13-.65-5.78L104.09,1.97ZM120.22,59.79c-1.51,0-2.73,1.22-2.73,2.73v77.39h-35.34V62.52c0-1.51-1.22-2.73-2.73-2.73h-22.95S99.82,5.37,99.82,5.37l43.36,54.41h-22.95Z" fill="#a5a5a5"/><path d="M34.39,80.18c-1.46-1.83-4.53-1.83-5.99,0L.84,114.77c-.93,1.16-1.1,2.71-.46,4.05.64,1.34,1.97,2.17,3.45,2.17h12.42v61.42c0,1.51,1.22,2.73,2.73,2.73h24.83c1.51,0,2.73-1.22,2.73-2.73v-61.42h12.41c1.48,0,2.8-.83,3.45-2.16.65-1.34.47-2.89-.45-4.05l-27.57-34.59ZM43.82,115.52c-1.51,0-2.73,1.22-2.73,2.73v61.42h-19.36v-61.42c0-1.51-1.22-2.73-2.73-2.73H7.24l24.16-30.32,24.16,30.32h-11.74Z" fill="#a5a5a5"/><path d="M120.22,156.37h-40.81c-1.51,0-2.73,1.22-2.73,2.73v23.31c0,1.51,1.22,2.73,2.73,2.73h40.81c1.51,0,2.73-1.22,2.73-2.73v-23.31c0-1.51-1.22-2.73-2.73-2.73ZM117.49,179.67h-35.34v-17.84h35.34v17.84Z" fill="#a5a5a5"/></svg>