<?xml version="1.0" encoding="UTF-8"?><svg id="Layer_1" xmlns="http://www.w3.org/2000/svg" viewBox="0 0 183.73 185.12"><path d="M157.99,185.12H25.74c-3.65,0-6.61-2.96-6.61-6.61,0-15.97,11.38-29.33,26.45-32.4v-23.76c0-9.14,7.44-16.57,16.57-16.57h3.7c2.6-5.28,4.4-10.81,5.36-16.51-7.04-2.32-13.6-5.79-19.58-10.35C25.53,75.74,4.49,55.82.09,29.82c-.59-3.48,1.67-6.82,5.12-7.57,6.68-1.44,13.44-2.7,20.53-3.82v-7.7c0-3.3,2.43-6.09,5.69-6.55,39.81-5.58,81.04-5.58,120.86,0,3.26.46,5.69,3.25,5.69,6.55v7.7c7.09,1.11,13.85,2.37,20.53,3.82,3.46.75,5.71,4.08,5.12,7.57-4.4,26-25.44,45.92-51.54,49.09-5.98,4.57-12.54,8.03-19.58,10.35.97,5.7,2.76,11.22,5.36,16.51h3.79c9.09,0,16.49,7.44,16.49,16.57v23.76c15.07,3.07,26.45,16.43,26.45,32.4,0,3.65-2.96,6.61-6.61,6.61ZM33.49,171.9h116.75c-2.73-7.7-10.08-13.23-18.7-13.23H52.19c-8.62,0-15.98,5.53-18.7,13.23ZM58.81,145.45h66.12v-23.1c0-1.88-1.43-3.35-3.26-3.35h-7.63c-.07,0-.15,0-.25,0h-43.84c-.09,0-.17,0-.25,0h-7.54c-1.91,0-3.35,1.44-3.35,3.35v23.1ZM80.29,105.77h23.16c-1.73-4.44-3.02-9.01-3.86-13.67-5.15.6-10.29.6-15.44,0-.84,4.67-2.12,9.23-3.86,13.67ZM80.01,78.01c7.86,1.75,15.84,1.75,23.7,0,.05,0,.09-.02.14-.03,7.85-1.85,15.06-5.39,21.43-10.53.03-.03.07-.05.1-.08,12.32-10.15,19.37-25.06,19.37-40.94v-9.9c-34.94-4.41-70.85-4.41-105.79,0v9.9c0,15.88,7.06,30.79,19.37,40.94.03.03.07.05.1.08,6.37,5.14,13.58,8.68,21.43,10.53.05,0,.09.02.14.03ZM14.63,33.82c3.37,10.68,10.49,19.62,19.79,25.37-4.76-8.34-7.67-17.66-8.46-27.4-3.86.63-7.62,1.3-11.33,2.02ZM157.77,31.8c-.79,9.73-3.7,19.06-8.46,27.4,9.3-5.75,16.42-14.69,19.79-25.37-3.71-.72-7.47-1.4-11.33-2.02Z" fill="#a5a5a5"/></svg>