<?xml version="1.0" encoding="UTF-8"?><svg id="Layer_1" xmlns="http://www.w3.org/2000/svg" viewBox="0 0 185.15 185.14"><path d="M88.62,1.2c2.39-1.59,5.51-1.59,7.9,0l85.45,56.97c3.28,2.18,4.16,6.6,1.97,9.87-2.18,3.28-6.6,4.16-9.87,1.97L92.57,15.68,11.07,70.01c-3.28,2.18-7.69,1.3-9.87-1.97-2.18-3.28-1.3-7.69,1.98-9.87L88.62,1.2Z" fill="#fff"/><path d="M170.9,76.74v94.16h7.12c3.93,0,7.12,3.19,7.12,7.12s-3.19,7.12-7.12,7.12H7.12C3.19,185.14,0,181.95,0,178.02s3.19-7.12,7.12-7.12h7.12v-94.16c0-3.51,2.55-6.49,6.02-7.04,23.57-3.7,47.72-5.62,72.31-5.62s48.74,1.92,72.31,5.62c3.47.54,6.02,3.52,6.02,7.04ZM99.69,99.69c0-3.93-3.19-7.12-7.12-7.12s-7.12,3.19-7.12,7.12v64.09c0,3.93,3.19,7.12,7.12,7.12s7.12-3.19,7.12-7.12v-64.09ZM128.18,92.57c3.93,0,7.12,3.19,7.12,7.12v64.09c0,3.93-3.19,7.12-7.12,7.12s-7.12-3.19-7.12-7.12v-64.09c0-3.93,3.19-7.12,7.12-7.12ZM64.09,99.69c0-3.93-3.19-7.12-7.12-7.12s-7.12,3.19-7.12,7.12v64.09c0,3.93,3.19,7.12,7.12,7.12s7.12-3.19,7.12-7.12v-64.09Z" fill="#fff" fill-rule="evenodd"/><path d="M92.57,53.41c5.9,0,10.68-4.79,10.68-10.68s-4.79-10.68-10.68-10.68-10.68,4.79-10.68,10.68,4.79,10.68,10.68,10.68Z" fill="#fff"/></svg>