<?xml version="1.0" encoding="UTF-8"?><svg id="Layer_1" xmlns="http://www.w3.org/2000/svg" viewBox="0 0 184.67 141.56"><path d="M92.33,141.56c-41.59,0-78.37-26.5-91.54-65.96-1.06-3.05-1.06-6.46,0-9.6C13.84,26.53,50.64,0,92.33,0s78.39,26.52,91.56,66c1.04,2.97,1.05,6.4,0,9.56-13.06,39.47-49.85,65.99-91.55,65.99ZM92.33,12.87c-36.14,0-68.02,22.98-79.34,57.19-.18.55-.14,1.05-.04,1.34,0,.03.02.06.03.09,11.4,34.21,43.29,57.2,79.34,57.2s68.03-22.98,79.34-57.19c.18-.55.14-1.05.04-1.34-11.43-34.31-43.32-57.29-79.38-57.29Z" fill="#a5a5a5"/><path d="M92.33,102.95c-17.74,0-32.17-14.43-32.17-32.17s14.43-32.17,32.17-32.17,32.18,14.43,32.18,32.17-14.43,32.17-32.18,32.17ZM92.33,51.47c-10.64,0-19.3,8.66-19.3,19.3s8.65,19.3,19.3,19.3,19.3-8.66,19.3-19.3-8.66-19.3-19.3-19.3Z" fill="#a5a5a5"/></svg>