<?xml version="1.0" encoding="UTF-8"?><svg id="Layer_1" xmlns="http://www.w3.org/2000/svg" viewBox="0 0 185.15 185.14"><path d="M178.03,185.14H7.12c-3.93,0-7.12-3.19-7.12-7.12s3.19-7.12,7.12-7.12h7.12v-94.16c0-3.51,2.55-6.49,6.02-7.04,47.51-7.46,97.13-7.46,144.62,0,3.47.54,6.02,3.53,6.02,7.04v94.16h7.12c3.93,0,7.12,3.19,7.12,7.12s-3.19,7.12-7.12,7.12ZM135.3,170.9h21.36v-88.02c-42.2-6.04-85.95-6.04-128.17,0v88.02h21.36v-71.21c0-3.93,3.19-7.12,7.12-7.12s7.12,3.19,7.12,7.12v71.21h21.36v-71.21c0-3.93,3.19-7.12,7.12-7.12s7.12,3.19,7.12,7.12v71.21h21.36v-71.21c0-3.93,3.19-7.12,7.12-7.12s7.12,3.19,7.12,7.12v71.21ZM178.02,71.21c-1.36,0-2.73-.39-3.95-1.2L92.57,15.68,11.07,70.01c-3.27,2.19-7.69,1.31-9.87-1.97-2.18-3.27-1.3-7.69,1.97-9.87L88.62,1.19c2.39-1.59,5.51-1.59,7.9,0l85.45,56.97c3.27,2.18,4.15,6.6,1.97,9.87-1.37,2.06-3.63,3.17-5.93,3.17ZM92.65,49.92c-3.93,0-7.2-3.19-7.2-7.12s3.19-7.2,7.12-7.2h.08c3.93,0,7.12,3.19,7.12,7.12s-3.19,7.2-7.12,7.2Z" fill="#a5a5a5"/></svg>