<?xml version="1.0" encoding="UTF-8"?><svg id="Layer_1" xmlns="http://www.w3.org/2000/svg" viewBox="0 0 185.14 185.14"><path d="M0,30.86C0,13.78,13.78,0,30.86,0h23.14c17.07,0,30.86,13.78,30.86,30.86v23.14c0,17.07-13.78,30.86-30.86,30.86h-23.14c-17.07,0-30.86-13.78-30.86-30.86v-23.14ZM100.29,30.86c0-17.07,13.78-30.86,30.86-30.86h23.14c17.07,0,30.86,13.78,30.86,30.86v23.14c0,17.07-13.78,30.86-30.86,30.86h-23.14c-17.07,0-30.86-13.78-30.86-30.86v-23.14ZM0,131.14c0-17.07,13.78-30.86,30.86-30.86h23.14c17.07,0,30.86,13.78,30.86,30.86v23.14c0,17.07-13.78,30.86-30.86,30.86h-23.14c-17.07,0-30.86-13.78-30.86-30.86v-23.14ZM100.29,131.14c0-17.07,13.78-30.86,30.86-30.86h23.14c17.07,0,30.86,13.78,30.86,30.86v23.14c0,17.07-13.78,30.86-30.86,30.86h-23.14c-17.07,0-30.86-13.78-30.86-30.86v-23.14Z" fill="#fff" fill-rule="evenodd"/></svg>