<?xml version="1.0" encoding="UTF-8"?><svg id="Layer_1" xmlns="http://www.w3.org/2000/svg" viewBox="0 0 185.14 185.15"><path d="M54,84.86h-23.14c-17.02,0-30.86-13.84-30.86-30.86v-23.14C0,13.84,13.84,0,30.86,0h23.14c17.02,0,30.86,13.84,30.86,30.86v23.14c0,17.02-13.84,30.86-30.86,30.86ZM30.86,15.43c-8.51,0-15.43,6.92-15.43,15.43v23.14c0,8.51,6.92,15.43,15.43,15.43h23.14c8.51,0,15.43-6.92,15.43-15.43v-23.14c0-8.51-6.92-15.43-15.43-15.43h-23.14Z" fill="#a5a5a5"/><path d="M54,185.15h-23.14c-17.02,0-30.86-13.85-30.86-30.86v-23.14c0-17.01,13.84-30.86,30.86-30.86h23.14c17.02,0,30.86,13.85,30.86,30.86v23.14c0,17.01-13.84,30.86-30.86,30.86ZM30.86,115.72c-8.51,0-15.43,6.92-15.43,15.43v23.14c0,8.51,6.92,15.43,15.43,15.43h23.14c8.51,0,15.43-6.92,15.43-15.43v-23.14c0-8.51-6.92-15.43-15.43-15.43h-23.14Z" fill="#a5a5a5"/><path d="M154.28,84.86h-23.14c-17.02,0-30.86-13.84-30.86-30.86v-23.14c0-17.02,13.84-30.86,30.86-30.86h23.14c17.02,0,30.86,13.84,30.86,30.86v23.14c0,17.02-13.84,30.86-30.86,30.86ZM131.14,15.43c-8.51,0-15.43,6.92-15.43,15.43v23.14c0,8.51,6.92,15.43,15.43,15.43h23.14c8.51,0,15.43-6.92,15.43-15.43v-23.14c0-8.51-6.92-15.43-15.43-15.43h-23.14Z" fill="#a5a5a5"/><path d="M154.28,185.15h-23.14c-17.02,0-30.86-13.85-30.86-30.86v-23.14c0-17.01,13.84-30.86,30.86-30.86h23.14c17.02,0,30.86,13.85,30.86,30.86v23.14c0,17.01-13.84,30.86-30.86,30.86ZM131.14,115.72c-8.51,0-15.43,6.92-15.43,15.43v23.14c0,8.51,6.92,15.43,15.43,15.43h23.14c8.51,0,15.43-6.92,15.43-15.43v-23.14c0-8.51-6.92-15.43-15.43-15.43h-23.14Z" fill="#a5a5a5"/></svg>