<?xml version="1.0" encoding="UTF-8"?><svg id="Layer_1" xmlns="http://www.w3.org/2000/svg" viewBox="0 0 171.13 184.14"><path d="M21.83,63.74C21.83,28.54,50.36,0,85.57,0s63.74,28.54,63.74,63.74v7.08c0,20.05,7.56,38.31,20,52.13,1.58,1.75,2.18,4.16,1.61,6.44-.56,2.28-2.22,4.13-4.42,4.94-14.58,5.38-29.84,9.36-45.62,11.75.07.88.09,1.77.09,2.65,0,19.56-15.86,35.41-35.41,35.41s-35.41-15.86-35.41-35.41c0-.89.04-1.78.09-2.65-15.78-2.39-31.04-6.36-45.62-11.75-2.21-.81-3.86-2.66-4.43-4.94-.56-2.28.05-4.69,1.61-6.44,12.45-13.82,20.01-32.08,20.01-52.13v-7.08ZM64.34,147.78c0,.32-.02.63-.02.95,0,11.74,9.51,21.25,21.25,21.25s21.25-9.51,21.25-21.25c0-.32,0-.63-.02-.95-7,.63-14.08.95-21.23.95s-14.23-.32-21.23-.95Z" fill="#0df" fill-rule="evenodd"/></svg>