<?xml version="1.0" encoding="UTF-8"?><svg id="Layer_1" xmlns="http://www.w3.org/2000/svg" viewBox="0 0 185.14 185.14"><path d="M92.57,0C41.45,0,0,41.45,0,92.57s41.45,92.57,92.57,92.57,92.57-41.45,92.57-92.57S143.7,0,92.57,0ZM86.72,56.66c0-3.22,2.62-5.85,5.85-5.85s5.85,2.62,5.85,5.85v35.92c0,3.22-2.62,5.85-5.85,5.85s-5.85-2.62-5.85-5.85v-35.92ZM122.08,122.09c-7.87,7.89-18.35,12.24-29.51,12.24,0,0,0,0,0,0-11.16,0-21.64-4.35-29.52-12.24-7.89-7.87-12.24-18.35-12.24-29.51s4.34-21.63,12.23-29.5c1.09-1.11,2.54-1.73,4.08-1.75.02,0,.03,0,.05,0,1.56,0,3.03.61,4.15,1.73h0c2.24,2.24,2.26,5.93.03,8.23l-.04.04c-5.69,5.68-8.83,13.22-8.83,21.24s3.14,15.57,8.83,21.24c5.68,5.7,13.23,8.83,21.25,8.83s15.57-3.14,21.24-8.83c5.7-5.68,8.84-13.23,8.84-21.25s-3.14-15.57-8.83-21.24l-.04-.04c-2.22-2.3-2.21-5.99.03-8.23,1.13-1.13,2.62-1.72,4.2-1.73,1.55.01,3,.63,4.08,1.75,7.88,7.87,12.23,18.35,12.23,29.5s-4.35,21.64-12.24,29.52Z" fill="#0df" fill-rule="evenodd"/></svg>