<?xml version="1.0" encoding="UTF-8"?><svg id="Layer_1" xmlns="http://www.w3.org/2000/svg" viewBox="0 0 173.45 185.14"><path d="M17.28,150.36v23.56c0,6.19,5.04,11.23,11.23,11.23h116.46c6.19,0,11.23-5.04,11.23-11.23v-23.56H17.28ZM110.01,170.48h-46.49c-1.55,0-2.81-1.26-2.81-2.81s1.26-2.81,2.81-2.81h46.49c1.55,0,2.81,1.26,2.81,2.81s-1.26,2.81-2.81,2.81Z" fill="#fff"/><path d="M125.1,32.74c-10.25-10.25-23.88-15.9-38.38-15.9s-28.13,5.64-38.38,15.9c-4.98,4.98-8.92,10.82-11.62,17.19h99.99c-2.7-6.37-6.63-12.21-11.62-17.19ZM152.25,43.43c-3.58-8.47-8.71-16.07-15.24-22.6-6.53-6.53-14.13-11.66-22.6-15.24-8.77-3.71-18.08-5.59-27.68-5.59s-18.91,1.88-27.68,5.59c-8.47,3.58-16.07,8.71-22.6,15.24-6.53,6.53-11.66,14.14-15.24,22.6-.9,2.13-1.7,4.3-2.38,6.5h11.86c2.98-7.89,7.63-15.1,13.7-21.16,11.31-11.31,26.35-17.54,42.35-17.54s31.03,6.23,42.35,17.54c6.06,6.07,10.72,13.28,13.7,21.16h11.86c-.68-2.2-1.48-4.36-2.38-6.5ZM125.1,32.74c-10.25-10.25-23.88-15.9-38.38-15.9s-28.13,5.64-38.38,15.9c-4.98,4.98-8.92,10.82-11.62,17.19h99.99c-2.7-6.37-6.63-12.21-11.62-17.19Z" fill="#fff"/><path d="M164.87,55.54H8.58c-4.73,0-8.58,3.85-8.58,8.58v72.04c0,4.73,3.85,8.58,8.58,8.58h156.29c4.73,0,8.58-3.85,8.58-8.58v-72.04c0-4.73-3.85-8.58-8.58-8.58ZM56.83,127.9H19.65c-1.55,0-2.81-1.26-2.81-2.81v-49.9c0-1.55,1.26-2.81,2.81-2.81h37.18c1.55,0,2.81,1.26,2.81,2.81v49.9c0,1.55-1.26,2.81-2.81,2.81ZM105.38,127.9h-37.33c-1.55,0-2.81-1.26-2.81-2.81v-49.9c0-1.55,1.26-2.81,2.81-2.81h37.33c1.55,0,2.81,1.26,2.81,2.81v49.9c0,1.55-1.26,2.81-2.81,2.81ZM153.8,127.9h-37.19c-1.55,0-2.81-1.26-2.81-2.81v-49.9c0-1.55,1.26-2.81,2.81-2.81h37.19c1.55,0,2.81,1.26,2.81,2.81v49.9c0,1.55-1.26,2.81-2.81,2.81Z" fill="#fff"/><polygon points="35.38 113.65 20.15 98.41 26.06 92.51 35.38 101.83 50.57 86.64 56.48 92.55 35.38 113.65" fill="#fff"/><polygon points="83.79 113.65 68.55 98.41 74.46 92.51 83.79 101.83 98.98 86.64 104.89 92.55 83.79 113.65" fill="#fff"/><polygon points="132.29 113.65 117.06 98.41 122.96 92.51 132.29 101.83 147.48 86.64 153.39 92.55 132.29 113.65" fill="#fff"/></svg>