<?xml version="1.0" encoding="UTF-8"?><svg id="Layer_1" xmlns="http://www.w3.org/2000/svg" viewBox="0 0 185.32 185.14"><path d="M89.23,35.14c0-3.3-1.74-6.22-3.66-8.79-2.01-2.65-3.2-5.86-3.2-9.24,0-9.43,9.24-17.11,20.59-17.11s20.59,7.69,20.59,17.2c0,3.3-1.19,6.5-3.2,9.15-1.92,2.56-3.66,5.49-3.66,8.79,0,3.02,2.56,5.4,5.58,5.21,17.48-1.01,34.68-3.11,51.52-6.13,1.83-.37,3.75.09,5.31,1.19,1.56,1.1,2.47,2.84,2.75,4.67,2.01,16.38,3.2,33.04,3.48,49.97,0,3.29-2.75,6.04-6.04,6.04s-6.22-1.74-8.79-3.66c-2.65-2.02-5.86-3.2-9.24-3.2-9.43,0-17.11,9.24-17.11,20.59s7.69,20.59,17.11,20.59c3.39,0,6.59-1.19,9.24-3.2,2.56-1.92,5.49-3.66,8.79-3.66,2.84,0,5.03,2.38,4.85,5.22-1.1,15.01-2.93,29.83-5.4,44.38-.55,2.84-2.75,5.03-5.58,5.58-16.66,2.84-33.68,4.85-50.88,5.86-3.02.18-5.58-2.29-5.58-5.31,0-3.3,1.74-6.22,3.66-8.79,2.01-2.65,3.2-5.86,3.2-9.24,0-9.43-9.24-17.11-20.59-17.11s-20.59,7.69-20.59,17.11c0,3.39,1.19,6.59,3.2,9.24,1.92,2.56,3.66,5.49,3.66,8.79s-2.75,5.95-6.04,5.86c-14.55-.37-28.92-1.56-43.1-3.29-1.83-.27-3.57-1.19-4.67-2.75-1.1-1.56-1.56-3.48-1.19-5.31,2.65-14.74,4.58-29.74,5.77-45.03.18-2.84-2.01-5.22-4.85-5.22-3.29,0-6.22,1.74-8.79,3.66-2.65,2.02-5.86,3.2-9.24,3.2-9.43,0-17.11-9.24-17.11-20.59s7.69-20.59,17.11-20.59c3.39,0,6.59,1.19,9.24,3.2,2.56,1.92,5.49,3.66,8.79,3.66s6.04-2.75,6.04-6.04c-.27-14.92-1.19-29.65-2.84-44.11-.27-2.1.46-4.21,1.92-5.67,1.46-1.46,3.57-2.2,5.67-1.92,12.26,1.37,24.71,2.29,37.25,2.65,3.29.09,6.04-2.56,6.04-5.86Z" fill="#fff"/></svg>