<?xml version="1.0" encoding="UTF-8"?><svg id="Layer_1" xmlns="http://www.w3.org/2000/svg" viewBox="0 0 185.14 62.53"><path d="M36.6,62.53H12.68c-6.99,0-12.68-5.69-12.68-12.68V12.68C0,5.69,5.69,0,12.68,0h23.92c6.99,0,12.68,5.69,12.68,12.68v37.17c0,6.99-5.69,12.68-12.68,12.68ZM12.68,6.55c-3.38,0-6.13,2.75-6.13,6.13v37.17c0,3.38,2.75,6.13,6.13,6.13h23.92c3.38,0,6.13-2.75,6.13-6.13V12.68c0-3.38-2.75-6.13-6.13-6.13H12.68Z" fill="#a5a5a5"/><path d="M35.81,13.29v4.34c-4.03,5.07-8.07,17.53-8.07,25.13h4.45v5.63H15.23v-5.63h4.34c.47-6.98,4.08-17.16,8.84-23.83l.1-.16h-8.94v4.91h-5.69v-10.39h21.92Z" fill="#a5a5a5"/><path d="M104.53,62.53h-23.92c-6.99,0-12.68-5.69-12.68-12.68V12.68c0-6.99,5.69-12.68,12.68-12.68h23.92c6.99,0,12.68,5.69,12.68,12.68v37.17c0,6.99-5.69,12.68-12.68,12.68ZM80.61,6.55c-3.38,0-6.13,2.75-6.13,6.13v37.17c0,3.38,2.75,6.13,6.13,6.13h23.92c3.38,0,6.13-2.75,6.13-6.13V12.68c0-3.38-2.75-6.13-6.13-6.13h-23.92Z" fill="#a5a5a5"/><path d="M103.74,13.29v4.34c-4.03,5.07-8.07,17.53-8.07,25.13h4.45v5.63h-16.96v-5.63h4.34c.47-6.98,4.08-17.16,8.84-23.83l.1-.16h-8.94v4.91h-5.69v-10.39h21.92Z" fill="#a5a5a5"/><path d="M172.46,62.53h-23.92c-6.99,0-12.68-5.69-12.68-12.68V12.68c0-6.99,5.69-12.68,12.68-12.68h23.92c6.99,0,12.68,5.69,12.68,12.68v37.17c0,6.99-5.69,12.68-12.68,12.68ZM148.54,6.55c-3.38,0-6.13,2.75-6.13,6.13v37.17c0,3.38,2.75,6.13,6.13,6.13h23.92c3.38,0,6.13-2.75,6.13-6.13V12.68c0-3.38-2.75-6.13-6.13-6.13h-23.92Z" fill="#a5a5a5"/><path d="M171.67,13.29v4.34c-4.03,5.07-8.07,17.53-8.07,25.13h4.45v5.63h-16.96v-5.63h4.34c.47-6.98,4.08-17.16,8.84-23.83l.1-.16h-8.94v4.91h-5.69v-10.39h21.92Z" fill="#a5a5a5"/></svg>