<?xml version="1.0" encoding="UTF-8"?><svg id="Layer_1" xmlns="http://www.w3.org/2000/svg" viewBox="0 0 185.64 185.64"><circle cx="92.82" cy="92.82" r="92.82" fill="#0df"/><path d="M92.82,99.69c5.19,0,9.42-4.23,9.42-9.42v-39.96c0-5.19-4.23-9.42-9.42-9.42s-9.42,4.22-9.42,9.42v39.96c0,5.19,4.22,9.42,9.42,9.42Z" fill="#fff"/><path d="M127.79,60.55c-1.76-1.82-4.12-2.83-6.64-2.85-.03,0-.05,0-.08,0-2.51,0-4.88.99-6.67,2.78-3.61,3.61-3.64,9.55,0,13.32,5.78,5.76,8.97,13.43,8.97,21.58s-3.18,15.81-8.98,21.59c-5.76,5.78-13.43,8.97-21.58,8.97s-15.81-3.18-21.59-8.98c-5.78-5.76-8.97-13.43-8.97-21.58s3.18-15.81,9.04-21.66c3.57-3.69,3.54-9.63-.07-13.24,0,0,0,0,0,0-1.8-1.8-4.16-2.78-6.67-2.78-.03,0-.05,0-.08,0-2.52.02-4.88,1.03-6.56,2.78-9.33,9.31-14.48,21.71-14.48,34.9s5.14,25.59,14.47,34.9c9.31,9.33,21.71,14.48,34.9,14.48s25.59-5.14,34.89-14.47c9.33-9.31,14.48-21.71,14.48-34.9s-5.14-25.59-14.4-34.82Z" fill="#fff"/></svg>