<?xml version="1.0" encoding="UTF-8"?><svg id="Layer_1" xmlns="http://www.w3.org/2000/svg" viewBox="0 0 184.14 184.14"><path d="M92.07,0C41.23,0,0,41.22,0,92.07s41.23,92.07,92.07,92.07,92.07-41.22,92.07-92.07S142.92,0,92.07,0ZM83.13,38.69c0-4.93,4.01-8.94,8.94-8.94s8.95,4.01,8.95,8.94v53.38c0,4.93-4.01,8.95-8.95,8.95s-8.94-4.01-8.94-8.95v-53.38ZM136.11,136.13c-11.74,11.77-27.39,18.26-44.04,18.26s-32.3-6.49-44.05-18.27c-11.77-11.74-18.26-27.39-18.26-44.04s6.48-32.28,18.25-44.03c1.66-1.7,3.88-2.65,6.24-2.67,2.43-.03,4.69.92,6.42,2.65,3.43,3.43,3.45,9.08.05,12.59l-.06.06c-8.42,8.38-13.05,19.54-13.05,31.4s4.64,23,13.05,31.39c8.39,8.42,19.55,13.06,31.4,13.06s23.01-4.63,31.4-13.05c8.42-8.4,13.06-19.55,13.06-31.4s-4.64-23.01-13.05-31.4l-.06-.06c-3.4-3.52-3.38-9.16.05-12.59,1.73-1.73,4-2.67,6.42-2.65,2.36.02,4.58.97,6.24,2.67,11.77,11.75,18.25,27.38,18.25,44.03s-6.49,32.3-18.27,44.05Z" fill="#0df"/></svg>