<?xml version="1.0" encoding="UTF-8"?><svg id="Layer_1" xmlns="http://www.w3.org/2000/svg" viewBox="0 0 185.15 62.54"><path d="M36.6,0H12.68C5.69,0,0,5.69,0,12.68v37.18c0,6.99,5.69,12.68,12.68,12.68h23.92c6.99,0,12.68-5.69,12.68-12.68V12.68c0-6.99-5.69-12.68-12.68-12.68ZM42.73,49.86c0,3.38-2.75,6.12-6.13,6.12H12.68c-3.37,0-6.12-2.74-6.12-6.12V12.68c0-3.37,2.75-6.12,6.12-6.12h23.92c3.38,0,6.13,2.75,6.13,6.12v37.18Z" fill="#a5a5a5"/><path d="M36.6,6.56H12.68c-3.37,0-6.12,2.75-6.12,6.12v37.18c0,3.38,2.75,6.12,6.12,6.12h23.92c3.38,0,6.13-2.74,6.13-6.12V12.68c0-3.37-2.75-6.12-6.13-6.12ZM35.81,17.64c-4.03,5.06-8.07,17.52-8.07,25.12h4.45v5.64H15.23v-5.64h4.35c.46-6.98,4.08-17.16,8.84-23.83l.1-.16h-8.94v4.92h-5.69v-10.4h21.92v4.35Z" fill="#a5a5a5"/><path d="M104.53,0h-23.91c-7,0-12.68,5.69-12.68,12.68v37.18c0,6.99,5.68,12.68,12.68,12.68h23.91c7,0,12.68-5.69,12.68-12.68V12.68c0-6.99-5.68-12.68-12.68-12.68ZM110.66,49.86c0,3.38-2.75,6.12-6.13,6.12h-23.91c-3.38,0-6.13-2.74-6.13-6.12V12.68c0-3.37,2.75-6.12,6.13-6.12h23.91c3.38,0,6.13,2.75,6.13,6.12v37.18Z" fill="#a5a5a5"/><path d="M104.53,6.56h-23.91c-3.38,0-6.13,2.75-6.13,6.12v37.18c0,3.38,2.75,6.12,6.13,6.12h23.91c3.38,0,6.13-2.74,6.13-6.12V12.68c0-3.37-2.75-6.12-6.13-6.12ZM103.74,17.64c-4.03,5.06-8.06,17.52-8.06,25.12h4.44v5.64h-16.95v-5.64h4.34c.46-6.98,4.08-17.16,8.84-23.83l.1-.16h-8.94v4.92h-5.69v-10.4h21.92v4.35Z" fill="#a5a5a5"/><path d="M172.47,0h-23.92c-6.99,0-12.68,5.69-12.68,12.68v37.18c0,6.99,5.69,12.68,12.68,12.68h23.92c6.99,0,12.68-5.69,12.68-12.68V12.68c0-6.99-5.69-12.68-12.68-12.68ZM178.59,49.86c0,3.38-2.75,6.12-6.12,6.12h-23.92c-3.38,0-6.13-2.74-6.13-6.12V12.68c0-3.37,2.75-6.12,6.13-6.12h23.92c3.37,0,6.12,2.75,6.12,6.12v37.18Z" fill="#a5a5a5"/><path d="M172.47,6.56h-23.92c-3.38,0-6.13,2.75-6.13,6.12v37.18c0,3.38,2.75,6.12,6.13,6.12h23.92c3.37,0,6.12-2.74,6.12-6.12V12.68c0-3.37-2.75-6.12-6.12-6.12ZM171.67,17.64c-4.03,5.06-8.06,17.52-8.06,25.12h4.44v5.64h-16.95v-5.64h4.34c.47-6.98,4.08-17.16,8.84-23.83l.1-.16h-8.94v4.92h-5.69v-10.4h21.92v4.35Z" fill="#a5a5a5"/></svg>