<?xml version="1.0" encoding="UTF-8"?><svg id="Layer_1" xmlns="http://www.w3.org/2000/svg" viewBox="0 0 201.2 194.33"><path d="M201.2,97.15c-.48-6.05-3.27-11.69-7.8-15.74,6.11-15.28-1.05-29.41-14.01-33.52,1.15-17.26-13.35-26.35-26.23-26.19-2.7-7.08-8.28-12.68-15.34-15.41-6.06-1.77-12.56-1.27-18.29,1.4C114.76,2.33,107.75-.48,100.6.07c-7.15-.55-14.16,2.26-18.93,7.62-5.72-2.67-12.22-3.17-18.29-1.4-7.06,2.74-12.64,8.34-15.34,15.41-12.79-.14-27.4,8.85-26.23,26.19-12.9,4.11-20.17,18.19-14.01,33.52-4.52,4.05-7.31,9.68-7.8,15.74.48,6.05,3.27,11.69,7.8,15.74-6.11,15.29,1.05,29.41,14.01,33.52-1.15,17.27,13.35,26.35,26.23,26.19,2.7,7.08,8.28,12.68,15.34,15.41,6.06,1.77,12.56,1.27,18.29-1.4,9.48,9.14,15.94,7.43,20.8,7.72,6.51-.12,12.68-2.92,17.07-7.72,12.09,5.87,27.32,1.43,33.63-14.01,12.79.14,27.4-8.86,26.23-26.19,5.73-1.94,10.56-5.88,13.62-11.1,3.35-7.07,3.49-15.24.4-22.42,4.52-4.05,7.31-9.68,7.8-15.74ZM153.59,109.51c.31.28-10.88-.05-10.99.07l-8.19,29.21c-2.04,7.4-6.46,13.91-12.58,18.54-18.77,15.03-49.16,4.84-55.08-18.54l-8.16-29.21s-10.74,0-10.99-.07c-23.32-5.1-25.51-25.76-23.39-35.96.36-1.65,1.83-2.83,3.52-2.84h19.11c1.76-.07,3.31,1.15,3.66,2.87,2.68,11.85,13.62,20.25,30.65,13.19,1.25-.45,2.66-.19,3.66.68,2.59,2.31,10.42,8.21,15.88,7.94,5.57,0,13.19-5.71,15.66-7.94,1.01-.88,2.41-1.14,3.66-.68,16.7,6.96,27.96-1.07,30.65-13.19.36-1.74,1.93-2.96,3.7-2.87h19.08c1.69,0,3.16,1.18,3.52,2.84,2.12,10.2-.07,30.86-23.39,35.96Z" fill="#fff"/><path d="M156.94,77.89c-1.72,5.3-4.94,10-9.27,13.51l-3.05,10.99h7.8c17.28-3.95,18.29-18.29,17.89-24.5h-13.37Z" fill="#fff"/><path d="M119.5,94.2c-13.68,11.03-24.13,11.07-37.8,0-6.22,2.4-12.99,2.93-19.51,1.55,1.73,6.23,9.57,34.3,11.46,41.1,3.07,10.78,12.24,18.71,23.35,20.19v-7.98c-4.14-.81-13.08-7.33-7.58-11.57,1.71-1,3.9-.44,4.92,1.26,2.01,3.45,6.44,4.62,9.89,2.61,1.08-.63,1.98-1.53,2.61-2.61,1.02-1.7,3.21-2.26,4.92-1.26,5.5,4.26-3.44,10.74-7.58,11.57v7.98c11.11-1.41,20.3-9.36,23.28-20.16l11.5-41.14c-6.5,1.39-13.27.85-19.47-1.54Z" fill="#fff"/><path d="M44.26,77.89h-13.37c-1.55,11.64,6.33,22.44,17.89,24.5h7.83l-3.09-10.96c-4.33-3.53-7.54-8.23-9.27-13.55Z" fill="#fff"/></svg>