<?xml version="1.0" encoding="UTF-8"?><svg id="Layer_1" xmlns="http://www.w3.org/2000/svg" viewBox="0 0 185.14 158.69"><path d="M52.81,145.47c-3.7,0-7.23-2.08-8.55-5.57-3-7.48-4.58-15.65-4.58-24.18,0-15.42,5.29-29.6,14.11-40.85,1.32-1.69,3.26-2.72,5.29-3.5,4.14-1.61,7.85-4.53,10.67-8.15,6.88-8.69,15.43-15.93,25.3-21.16,6.35-3.39,11.81-8.43,14.55-15.12,1.85-4.69,2.82-9.69,2.82-14.74v-5.58c0-3.65,3-6.61,6.61-6.61,10.93,0,19.84,8.88,19.84,19.84,0,10.16-2.29,19.78-6.35,28.37-2.38,4.92.88,11.3,6.35,11.3h27.6c8.99,0,17.1,6.12,18.07,15.12.44,3.72.62,7.5.62,11.33,0,25.11-8.73,48.17-23.36,66.31-3.44,4.25-8.73,6.43-14.11,6.43h-35.44c-4.23,0-8.46-.69-12.52-2.04l-27.51-9.15c-4.06-1.35-8.29-2.04-12.52-2.04h-6.88Z" fill="#fff"/><path d="M7.32,76.94C2.56,88.95,0,102.03,0,115.71c0,10.76,1.59,21.14,4.58,30.92,2.29,7.49,9.52,12.06,17.37,12.06h8.02c3.97,0,6.35-4.39,4.58-7.92-5.2-10.57-8.11-22.47-8.11-35.06,0-15.06,4.23-29.14,11.46-41.14,2.2-3.55-.26-8.45-4.41-8.45h-9.26c-7.32,0-14.19,3.99-16.93,10.82Z" fill="#fff"/></svg>