<?xml version="1.0" encoding="UTF-8"?><svg id="Layer_1" xmlns="http://www.w3.org/2000/svg" viewBox="0 0 170.9 185.14"><path d="M28.48,14.24c-7.86,0-14.24,6.36-14.24,14.24v128.18c0,7.88,6.38,14.24,14.24,14.24h56.97c7.86,0,14.24-6.36,14.24-14.24v-35.6c0-3.89,3.19-7.12,7.12-7.12s7.12,3.23,7.12,7.12v35.6c0,15.76-12.75,28.48-28.48,28.48H28.48c-15.73,0-28.48-12.72-28.48-28.48V28.48C0,12.72,12.75,0,28.48,0h56.97c15.73,0,28.48,12.72,28.48,28.48v35.6c0,3.89-3.19,7.12-7.12,7.12s-7.12-3.23-7.12-7.12V28.48c0-7.88-6.38-14.24-14.24-14.24H28.48ZM130.26,59.06c2.78-2.75,7.28-2.75,10.06,0l28.48,28.48c2.78,2.75,2.78,7.31,0,10.06l-28.48,28.48c-2.78,2.75-7.28,2.75-10.06,0-2.78-2.75-2.78-7.31,0-10.06l16.32-16.33H42.72c-3.93,0-7.12-3.23-7.12-7.12s3.19-7.12,7.12-7.12h103.86l-16.32-16.33c-2.78-2.75-2.78-7.31,0-10.06Z" fill="#fff" fill-rule="evenodd"/></svg>