<?xml version="1.0" encoding="UTF-8"?><svg id="Layer_1" xmlns="http://www.w3.org/2000/svg" viewBox="0 0 188 185.14"><rect x="76.75" y="127.6" width="34.5" height="28.55" fill="#fff"/><rect x="76.75" y="165.43" width="34.5" height="19.7" fill="#fff"/><path d="M95.8.88c-.93-1.16-2.69-1.16-3.62,0l-36.65,45.99c-1.21,1.51-.13,3.75,1.81,3.75h19.4v68.83h34.5V50.62h19.4c1.94,0,3.02-2.24,1.81-3.75L95.8.88Z" fill="#fff"/><rect x="13.75" y="151.09" width="20.99" height="17.18" fill="#fff"/><rect x="13.75" y="175.29" width="20.99" height="9.85" fill="#fff"/><path d="M24.97,72.53c-.37-.46-1.08-.46-1.45,0L.22,101.77c-.48.61-.05,1.5.72,1.5h12.81v41.92h20.99v-41.92h12.81c.77,0,1.21-.9.72-1.5l-23.3-29.24Z" fill="#fff"/><rect x="153.26" y="152.22" width="20.99" height="16.05" fill="#fff"/><rect x="153.26" y="175.29" width="20.99" height="9.85" fill="#fff"/><path d="M187.78,101.77l-23.3-29.24c-.37-.46-1.08-.46-1.45,0l-23.3,29.24c-.48.61-.05,1.5.72,1.5h12.81v41.92h20.99v-41.92h12.81c.77,0,1.21-.9.72-1.5Z" fill="#fff"/></svg>