<?xml version="1.0" encoding="UTF-8"?><svg id="Layer_1" xmlns="http://www.w3.org/2000/svg" viewBox="0 0 199.39 185.12"><path d="M49.85,185.12c-.92,0-1.85-.18-2.73-.54-2.66-1.1-4.4-3.7-4.4-6.58v-38.26c-3.43-.37-6.84-.78-10.25-1.19C13.94,136.13,0,119.87,0,100.72v-59.06C0,22.51,13.94,6.25,32.41,3.84c40.21-5.12,80.13-5.12,120.31,0,18.5,2.41,32.43,18.67,32.43,37.83v13.14c8.69,4.87,14.24,14.17,14.24,24.55v40.64c0,14.68-10.87,26.71-25.3,27.98-1.13.07-2.17.14-3.19.21v22.7c0,2.88-1.74,5.48-4.4,6.58-2.65,1.1-5.72.5-7.76-1.54l-26.41-26.41c-11.39-.07-23.12-.58-35.75-1.53-1.96-.19-3.81-.54-5.56-1.05l-36.16,36.11c-1.36,1.36-3.18,2.08-5.03,2.08ZM92.58,14.22c-19.22,0-38.85,1.26-58.34,3.74-11.38,1.48-19.99,11.68-19.99,23.7v59.06c0,12.02,8.6,22.21,20.01,23.7,5.33.65,10.75,1.3,16.21,1.77,3.68.32,6.51,3.4,6.51,7.09v27.54l21.68-21.65c-4.71-5.14-7.44-11.95-7.44-19.18v-40.64c0-14.75,10.88-26.74,25.32-27.89,25.11-2.08,49.24-2.17,74.37-.25v-9.55c0-12.02-8.6-22.21-20.01-23.7-19.47-2.48-39.1-3.74-58.32-3.74ZM92.72,132.36c1.5.77,3.22,1.25,5.11,1.44,13.2.99,25.51,1.48,37.46,1.48,1.89,0,3.7.75,5.03,2.08l16.32,16.33v-12.15c0-3.77,2.94-6.89,6.71-7.11,1.6-.09,3.19-.21,4.78-.33,1.63-.12,3.27-.24,4.9-.34,6.81-.61,12.1-6.54,12.1-13.78v-40.64c0-6-3.7-11.26-9.21-13.13-.09-.03-.18-.06-.26-.09-.8-.25-1.67-.41-2.59-.47-25.77-2.13-49.96-2.12-75.4-.01-6.98.55-12.23,6.44-12.23,13.69v40.64c0,5.13,2.73,9.83,7.14,12.3.04.02.08.04.12.07Z" fill="#a5a5a5"/></svg>