<?xml version="1.0" encoding="UTF-8"?><svg id="Layer_1" xmlns="http://www.w3.org/2000/svg" viewBox="0 0 185.14 59.51"><path d="M0,0h19.84v13.22h6.61v-6.61h6.61V0h19.84v19.84h-6.61v6.61h-6.61v6.61h6.61v6.61h6.61v19.84h-19.84v-6.61h-6.61v-6.61h-6.61v13.22H0V0ZM132.25,0h19.84v13.22h6.61v-6.61h6.61V0h19.84v19.84h-6.61v6.61h-6.61v6.61h6.61v6.61h6.61v19.84h-19.84v-6.61h-6.61v-6.61h-6.61v13.22h-19.84V0ZM59.51,0h19.84v59.51h-19.84V0ZM105.8,0h-13.22v6.61h-6.61v46.29h6.61v6.61h33.06v-19.84h-19.84v-19.84h19.84V0h-19.84Z" fill="#a5a5a5" fill-rule="evenodd"/></svg>