<?xml version="1.0" encoding="UTF-8"?><svg id="Layer_1" xmlns="http://www.w3.org/2000/svg" viewBox="0 0 199.39 185.13"><path d="M32.41,3.89C52.11,1.33,72.19,0,92.57,0s40.47,1.33,60.17,3.89c18.25,2.37,31.25,17.66,32.33,35.32-3.1-.95-6.37-1.71-9.8-1.99-13.19-1.04-26.52-1.61-39.97-1.61s-26.78.57-39.97,1.61c-22.39,1.9-38.36,20.79-38.36,42.16v40.64c0,16.05,9.07,30.76,23.1,37.88l-25.19,25.16c-2.03,1.99-5.1,2.66-7.76,1.52-2.66-1.04-4.4-3.7-4.4-6.55v-38.26c-3.46-.38-6.89-.76-10.32-1.23C13.34,136.06,0,119.44,0,100.74v-59.06C0,22.98,13.34,6.36,32.41,3.89Z" fill="#fff"/><path d="M135.3,49.85c-13.06,0-26.01.57-38.79,1.61-14.61,1.23-25.29,13.58-25.29,27.91v40.64c0,14.34,10.71,26.77,25.34,27.91,11.81,1.04,23.75,1.52,35.78,1.61l26.41,26.39c2.03,1.99,5.1,2.66,7.76,1.52,2.66-1.04,4.4-3.7,4.4-6.55v-22.69c1.04-.09,2.1-.19,3.14-.29,14.63-1.14,25.34-13.58,25.34-27.91v-40.64c0-14.34-10.68-26.68-25.29-27.91-12.79-1.04-25.73-1.61-38.79-1.61Z" fill="#fff"/></svg>