<?xml version="1.0" encoding="UTF-8"?><svg id="Layer_1" xmlns="http://www.w3.org/2000/svg" viewBox="0 0 199 192.21"><path d="M199,96.09c-.46-5.99-3.23-11.56-7.72-15.55,3.07-7.1,2.93-15.18-.38-22.18-3.01-5.18-7.8-9.09-13.47-11,.52-6.72-1.79-13.36-6.37-18.3-5.35-4.87-12.33-7.58-19.57-7.58-2.65-7.01-8.18-12.56-15.18-15.24-6-1.75-12.42-1.26-18.09,1.37C113.49,2.32,106.57-.47,99.5.06c-7.07-.53-13.99,2.25-18.71,7.54-5.66-2.63-12.09-3.12-18.09-1.37-7,2.68-12.53,8.22-15.18,15.24-7.24,0-14.22,2.71-19.57,7.58-4.58,4.95-6.89,11.58-6.37,18.3-5.68,1.91-10.46,5.82-13.47,11-3.31,6.99-3.45,15.07-.38,22.18-4.49,3.99-7.26,9.56-7.72,15.55.46,5.99,3.23,11.56,7.72,15.55-3.07,7.1-2.93,15.18.38,22.18,3.01,5.18,7.8,9.09,13.47,11-.52,6.72,1.79,13.36,6.37,18.3,5.35,4.87,12.33,7.58,19.57,7.58,2.65,7.01,8.18,12.56,15.18,15.24,6,1.75,12.42,1.27,18.09-1.37,4.73,5.28,11.64,8.07,18.71,7.54.61.07,1.22.1,1.83.1,6.44-.11,12.55-2.87,16.88-7.64,5.66,2.63,12.09,3.12,18.09,1.37,7-2.68,12.53-8.22,15.18-15.24,7.24,0,14.22-2.71,19.57-7.58,4.58-4.95,6.89-11.58,6.37-18.3,5.68-1.91,10.46-5.82,13.47-11,3.31-6.99,3.45-15.07.38-22.18,4.49-3.99,7.26-9.56,7.72-15.55ZM184.92,107.79c-1.26.98-1.72,2.67-1.12,4.15,3.07,7.56,3.36,13.77.87,18.45-2.64,4.21-6.82,7.2-11.65,8.34-1.79.36-3.01,2.01-2.84,3.82,1.02,5.55-.51,11.26-4.16,15.56-5.99,6.14-16.49,5.48-16.59,5.47-1.56-.15-3.03.76-3.57,2.23-2.86,7.21-6.81,11.7-11.73,13.36-5.04,1.28-10.38.55-14.89-2.04-1.53-.94-3.51-.59-4.64.8-3.2,4.75-8.69,7.45-14.41,7.09-.22-.04-.44-.06-.66-.06-.22,0-.43.02-.64.05-5.74.39-11.24-2.31-14.45-7.09-1.12-1.4-3.11-1.74-4.64-.8-4.5,2.57-9.81,3.31-14.84,2.06-4.95-1.64-8.92-6.15-11.78-13.38-.58-1.43-2.02-2.33-3.56-2.23-.09,0-10.62.67-16.6-5.47-3.65-4.3-5.18-10.01-4.16-15.56.17-1.81-1.05-3.45-2.82-3.82-4.84-1.14-9.03-4.13-11.67-8.34-2.5-4.68-2.2-10.89.87-18.45.59-1.48.14-3.17-1.12-4.15-1.94-1.51-6.98-6.56-6.98-11.71s5.04-10.2,6.98-11.7c1.26-.98,1.72-2.67,1.12-4.15-3.07-7.56-3.36-13.77-.87-18.45,2.64-4.21,6.82-7.2,11.65-8.34,1.79-.36,3.01-2.01,2.84-3.82-1.02-5.55.51-11.26,4.16-15.56,5.99-6.14,16.5-5.47,16.59-5.47,1.56.14,3.02-.77,3.57-2.23,2.86-7.21,6.81-11.7,11.73-13.36,5.04-1.28,10.38-.55,14.89,2.04,1.53.94,3.52.6,4.64-.8,3.2-4.76,8.69-7.46,14.41-7.09.43.08.87.08,1.3,0,5.74-.38,11.24,2.32,14.45,7.09,1.12,1.4,3.11,1.75,4.64.8,4.5-2.57,9.81-3.31,14.84-2.06,4.95,1.64,8.92,6.15,11.78,13.38.58,1.44,2.02,2.34,3.56,2.23.1-.01,10.62-.67,16.6,5.47,3.65,4.3,5.18,10.01,4.16,15.56-.17,1.81,1.05,3.45,2.82,3.82,4.84,1.14,9.03,4.13,11.67,8.34,2.5,4.68,2.2,10.89-.87,18.45-.59,1.48-.14,3.17,1.12,4.15,1.94,1.51,6.98,6.56,6.98,11.71s-5.04,10.2-6.98,11.7Z" fill="#a5a5a5"/><path d="M171.57,69.92h-18.72c-.13.02-.25.04-.37.08-1.66,0-3.09,1.16-3.42,2.79-1.29,5.56-4.7,10.4-9.5,13.48-5.31,2.93-12.31,2.79-20.82-.43-1.24-.47-2.63-.21-3.62.67-2.46,2.18-9.99,7.84-15.52,7.84-.02,0-.18,0-.36,0-.03,0-.07,0-.1,0-5.25,0-12.78-5.65-15.24-7.84-.99-.87-2.38-1.13-3.62-.67-8.51,3.22-15.51,3.36-20.82.43-4.8-3.08-8.21-7.92-9.5-13.48-.34-1.63-1.78-2.8-3.44-2.79-.12-.03-.24-.05-.35-.07h-18.72c-1.69,0-3.14,1.18-3.48,2.83-2.09,10.09.07,30.51,23.13,35.56.25.05.5.08.76.08h10.12l8.05,28.89c5.18,18.49,24.37,29.29,42.86,24.11,4.21-1.18,8.15-3.14,11.63-5.78,6.05-4.58,10.42-11.02,12.43-18.34l8.07-28.88h10.14c.26,0,.51-.03.76-.08,23.07-5.05,25.22-25.47,23.13-35.56-.34-1.65-1.8-2.83-3.48-2.83ZM48.24,101.29c-11.43-2.06-19.21-12.75-17.67-24.26h13.22c1.72,5.25,4.9,9.91,9.17,13.41l3.02,10.85h-7.74ZM126.1,135.37c-2.93,10.7-12.03,18.56-23.04,19.91v-7.84c3.68-.93,6.83-3.29,8.76-6.57,1-1.69.44-3.87-1.25-4.87-1.69-1-3.87-.44-4.87,1.25h0c-2.03,3.42-6.44,4.55-9.87,2.52-1.04-.62-1.91-1.48-2.52-2.52-1-1.69-3.18-2.25-4.87-1.25s-2.25,3.18-1.25,4.87h0c1.92,3.27,5.08,5.64,8.76,6.57v7.84c-10.97-1.45-20.04-9.27-23.08-19.91l-11.35-40.71c6.44,1.4,13.14.89,19.3-1.46,3.4,2.72,11.18,8.26,18.19,8.26h.86c7.11,0,14.93-5.54,18.33-8.26,6.15,2.35,12.86,2.86,19.29,1.46l-11.39,40.72ZM150.76,101.29h-7.75l3.03-10.85c4.27-3.5,7.46-8.16,9.17-13.41h13.21c1.55,11.51-6.24,22.2-17.67,24.26Z" fill="#a5a5a5"/></svg>