<?xml version="1.0" encoding="UTF-8"?><svg id="Layer_1" xmlns="http://www.w3.org/2000/svg" viewBox="0 0 185.14 155.48"><path d="M142.33,120.84l.94,4.83,4.65,23.81h-6.78l-8.65-17.11-2.61-5.16c2.43-1.49,4.6-3.37,6.38-5.5l6.08-.86M147.13,114.1l-14.2,2.02c-1.58,2.44-3.74,4.48-6.23,6-1.55.93-3.26,1.64-5.06,2.1l2.75,5.44,2.74,5.42,10.32,20.4h17.75l-6.04-30.96-1.15-5.91-.88-4.51h0Z" fill="#fff"/><path d="M58.58,120.84l14.67,2.08-13.43,26.56h-6.79l5.55-28.64M53.77,114.1l-8.02,41.38h17.75l18.87-37.32-28.6-4.06h0Z" fill="#fff"/><path d="M29.48,35.38c.26,1.69.69,3.34,1.28,4.96l.04.12.05.12c1.26,3.04,2.82,5.56,4.73,7.66h0c-1.09,1.83-1.88,3.66-2.36,5.45l-.02.07-.02.08c-.37,1.56-.75,3.45-.75,5.61,0,1.8.21,3.56.63,5.24-1.49.34-3.01.61-4.53.81-1.74.22-3.47.33-5.15.33-8.71,0-15.56-3.05-17.05-7.58-1.28-3.95,1.4-8.18,3.11-10.36,3.56-4.52,9.24-8.46,16.01-11.12.96-.38,1.97-.74,3-1.07.34-.11.69-.22,1.03-.32M35.48,27.88c-2.06.31-4.15.75-6.27,1.33-.86.24-1.73.5-2.6.78-1.15.37-2.27.77-3.36,1.2C7.32,37.44-2.67,49.94.63,60.1c2.45,7.44,11.5,11.73,22.76,11.73,1.91,0,3.88-.12,5.89-.38,2.02-.26,4.08-.64,6.16-1.16,1.28-.31,2.56-.68,3.84-1.1.71-.24,1.41-.48,2.09-.73-.16-.24-.33-.47-.48-.72-1.61-2.35-2.46-5.18-2.46-8.29,0-1.49.27-2.88.59-4.22.37-1.39,1.01-2.73,1.71-3.9l2.3-3.8-2.94-3.26c-1.61-1.76-2.78-3.8-3.69-5.99-.8-2.19-1.23-4.49-1.23-6.95,0-1.17.11-2.33.31-3.45h0Z" fill="#fff"/><path d="M181.02,74.48c2.57-4.44,4.12-9.46,4.12-14.81,0-8.08-3.21-15.29-8.5-20.48-5.24-5.29-12.46-8.61-20.48-8.61-2.99,0-5.99.54-8.82,1.45-.96.32-1.93.69-2.83,1.07-3-3.64-6.74-6.74-10.86-9.09-5.67-3.21-12.19-5.03-19.03-5.03-3.91,0-7.7.59-11.34,1.66-2.19.69-4.38,1.6-6.52,2.62-1.5-.96-3.15-1.77-4.87-2.46-2.72-1.07-5.56-1.66-8.55-1.82-2.14-4.86-5.4-9.09-9.52-12.4C68.42,2.46,61.79,0,54.58,0,45.91,0,38.06,3.53,32.44,9.14c-5.74,5.64-9.16,13.45-9.19,22.05v.14c0,3.96.69,7.65,2.03,11.18.85,2.24,1.92,4.43,3.36,6.36-.48,1.07-.8,2.03-1.06,3.1-.75,2.41-1.07,4.92-1.07,7.48,0,4.25.99,8.34,2.77,12,.48.99,1.02,1.95,1.61,2.87,1.87,2.89,4.33,5.45,7.17,7.38-.17.64-.27,1.17-.33,1.76-.42,2.3-.64,4.6-.64,6.79,0,10.53,4.23,20.05,11.12,26.95,1.33,1.32,2.75,2.55,4.25,3.67,6.34,4.73,14.19,7.56,22.7,7.56.69,0,1.38-.03,2.06-.07,3.38-.2,6.66-.89,9.86-1.91,1.71-.59,3.43-1.34,5.08-2.09,2.19,2.89,4.98,5.46,8.02,7.49,4.87,3.1,10.59,4.92,16.79,4.92,3.54,0,6.96-.6,10.16-1.69,1.98-.68,3.87-1.55,5.67-2.59,3.42-2.14,6.41-4.87,8.87-8.08,1.45.22,2.94.27,4.28.27,1.08,0,2.15-.05,3.21-.16,7.32-.73,13.86-3.97,18.82-8.93,5.66-5.61,9.09-13.42,9.09-22.02,0-3.05-.43-6.05-1.23-8.88-.27-.96-.64-1.92-1.07-2.89,2.46-2.14,4.6-4.59,6.25-7.32ZM170.81,68.28c-1.6,2.67-3.8,4.86-6.52,6.31l-5.72,3.04,3.47,5.51c1.02,1.5,1.82,3.15,2.36,4.92.48,1.76.74,3.53.74,5.51,0,5.29-2.08,10.1-5.61,13.58-3.48,3.42-8.23,5.61-13.58,5.61-1.02,0-1.87-.05-2.67-.16-.97-.16-1.87-.38-2.73-.59l-4.6-1.34-2.3,4.23c-.22.42-.46.82-.72,1.22-1.58,2.44-3.74,4.48-6.23,6-1.55.93-3.26,1.64-5.06,2.1-1.5.37-3.07.57-4.67.57-3.8,0-7.32-1.07-10.32-2.99-3.1-1.98-5.5-4.76-7.06-8.13l-2.99-6.74-5.93,4.44c-2.2,1.6-4.66,2.89-7.33,3.69-2.57.91-5.29,1.34-8.18,1.34-7.17,0-13.79-2.89-18.45-7.7-4.81-4.66-7.7-11.18-7.7-18.45,0-1.66.17-3.26.43-4.76.27-1.49.7-2.99,1.23-4.49l1.98-5.19-5.13-2.29c-2.46-1.11-4.58-2.88-6.15-5.06-.16-.24-.33-.47-.48-.72-1.61-2.35-2.46-5.18-2.46-8.29,0-1.49.27-2.88.59-4.22.37-1.39,1.01-2.73,1.71-3.9l2.3-3.8-2.94-3.26c-1.61-1.76-2.78-3.8-3.69-5.99-.8-2.19-1.23-4.49-1.23-6.95,0-1.17.11-2.33.31-3.45.72-3.93,2.64-7.49,5.3-10.24,3.53-3.52,8.4-5.66,13.8-5.66,4.49,0,8.66,1.49,11.92,4.06,3.31,2.57,5.83,6.26,6.84,10.59l1.34,5.13,5.29-.7c.27,0,.64-.1,1.07-.1h1.07c1.93,0,3.8.37,5.45.96,1.77.69,3.37,1.71,4.76,2.94l3.48,3.15,3.9-2.61c2.09-1.45,4.44-2.57,7-3.27,2.52-.8,5.14-1.17,7.92-1.17,4.81,0,9.35,1.23,13.2,3.42,4.07,2.3,7.44,5.56,9.79,9.62l3.37,5.56,5.29-3.79c1.39-1.02,2.99-1.82,4.7-2.36,1.55-.53,3.32-.8,5.19-.8,4.71,0,8.98,1.87,12.08,4.92,3,3.1,4.98,7.33,4.98,12.14,0,3.15-.91,6.15-2.41,8.61Z" fill="#fff" fill-rule="evenodd"/><path d="M173.22,59.67c0,3.15-.91,6.15-2.41,8.61-1.6,2.67-3.8,4.86-6.52,6.31l-5.72,3.04,3.47,5.51c1.02,1.5,1.82,3.15,2.36,4.92.48,1.76.74,3.53.74,5.51,0,5.29-2.08,10.1-5.61,13.58-3.48,3.42-8.23,5.61-13.58,5.61-1.02,0-1.87-.05-2.67-.16-.97-.16-1.87-.38-2.73-.59l-4.6-1.34-2.3,4.23c-.22.42-.46.82-.72,1.22-1.58,2.44-3.74,4.48-6.23,6-1.55.93-3.26,1.64-5.06,2.1-1.5.37-3.07.57-4.67.57-3.8,0-7.32-1.07-10.32-2.99-3.1-1.98-5.5-4.76-7.06-8.13l-2.99-6.74-5.93,4.44c-2.2,1.6-4.66,2.89-7.33,3.69-2.57.91-5.29,1.34-8.18,1.34-7.17,0-13.79-2.89-18.45-7.7-4.81-4.66-7.7-11.18-7.7-18.45,0-1.66.17-3.26.43-4.76.27-1.49.7-2.99,1.23-4.49l1.98-5.19-5.13-2.29c-2.46-1.11-4.58-2.88-6.15-5.06-.16-.24-.33-.47-.48-.72-1.61-2.35-2.46-5.18-2.46-8.29,0-1.49.27-2.88.59-4.22.37-1.39,1.01-2.73,1.71-3.9l2.3-3.8-2.94-3.26c-1.61-1.76-2.78-3.8-3.69-5.99-.8-2.19-1.23-4.49-1.23-6.95,0-1.17.11-2.33.31-3.45.72-3.93,2.64-7.49,5.3-10.24,3.53-3.52,8.4-5.66,13.8-5.66,4.49,0,8.66,1.49,11.92,4.06,3.31,2.57,5.83,6.26,6.84,10.59l1.34,5.13,5.29-.7c.27,0,.64-.1,1.07-.1h1.07c1.93,0,3.8.37,5.45.96,1.77.69,3.37,1.71,4.76,2.94l3.48,3.15,3.9-2.61c2.09-1.45,4.44-2.57,7-3.27,2.52-.8,5.14-1.17,7.92-1.17,4.81,0,9.35,1.23,13.2,3.42,4.07,2.3,7.44,5.56,9.79,9.62l3.37,5.56,5.29-3.79c1.39-1.02,2.99-1.82,4.7-2.36,1.55-.53,3.32-.8,5.19-.8,4.71,0,8.98,1.87,12.08,4.92,3,3.1,4.98,7.33,4.98,12.14Z" fill="#fff" fill-rule="evenodd"/></svg>