<?xml version="1.0" encoding="UTF-8"?><svg id="Layer_1" xmlns="http://www.w3.org/2000/svg" viewBox="0 0 184.92 177.02"><path d="M42.91,177.02c-2.48,0-4.97-.76-7.09-2.27-4.05-2.88-5.96-7.88-4.88-12.73l11.8-49.31L4.3,79.84c-3.8-3.3-5.23-8.46-3.68-13.17,1.54-4.69,5.73-7.98,10.66-8.37l50.42-4.11L81.15,7.53C83.04,2.96,87.47,0,92.45,0h0c4.98,0,9.42,2.96,11.32,7.55l19.45,46.65,50.43,4.11c4.92.39,9.1,3.68,10.64,8.37,1.55,4.71.12,9.87-3.64,13.13l-38.49,32.91,11.78,49.21c1.11,4.95-.8,9.95-4.85,12.83-4.01,2.86-9.32,3.03-13.48.44l-43.16-26.37-43.2,26.39c-1.94,1.21-4.15,1.81-6.35,1.81ZM41.94,163.28h-.01s.01,0,.01,0ZM142.95,163.26h0s0,0,0,0ZM92.46,134.5c2.2,0,4.4.6,6.36,1.8l40.54,24.77-11.05-46.19c-1.12-4.45.46-9.26,4.06-12.19l35.98-30.77-47.34-3.86c-4.5-.21-8.55-3.11-10.32-7.56l-18.23-43.73-18.27,43.83c-1.74,4.35-5.79,7.25-10.52,7.47l-47.1,3.85,36.11,30.88c3.47,2.81,5.06,7.63,3.92,12.16l-11.03,46.11,40.54-24.77c1.96-1.2,4.16-1.8,6.35-1.8ZM43.63,113.47s.06.05.09.08l-.09-.08ZM141.4,113.38l-.06.05s.04-.03.06-.05ZM43,111.62s0,.03,0,.04v-.04ZM141.9,111.54v.05s0-.03,0-.05ZM61.25,55.26s0,.03-.01.04v-.04ZM123.64,55.18v.04s0-.02,0-.04ZM62.77,54.1s-.05,0-.08,0h.08ZM121.91,54.09h.13s-.09,0-.13,0ZM90.85,12.91s0,0,0,0h0ZM87.61,10.22h.05-.05Z" fill="#a5a5a5"/></svg>