<?xml version="1.0" encoding="UTF-8"?><svg id="Layer_1" xmlns="http://www.w3.org/2000/svg" viewBox="0 0 188 185.14"><path d="M110.83,124.47h-33.67c-1.25,0-2.26,1.01-2.26,2.26v27.89c0,1.25,1.01,2.26,2.26,2.26h33.67c1.25,0,2.26-1.01,2.26-2.26v-27.89c0-1.25-1.01-2.26-2.26-2.26ZM108.58,152.36h-29.16v-23.38h29.16v23.38Z" fill="#a5a5a5"/><path d="M110.83,161.39h-33.67c-1.25,0-2.26,1.01-2.26,2.26v19.23c0,1.25,1.01,2.26,2.26,2.26h33.67c1.25,0,2.26-1.01,2.26-2.26v-19.23c0-1.25-1.01-2.26-2.26-2.26ZM108.58,180.62h-29.16v-14.72h29.16v14.72Z" fill="#a5a5a5"/><path d="M97.52,1.62c-1.73-2.16-5.34-2.16-7.06,0l-35.78,44.89c-1.09,1.37-1.3,3.2-.54,4.77.76,1.58,2.32,2.56,4.07,2.56h16.68v63.86c0,1.25,1.01,2.26,2.26,2.26h33.67c1.25,0,2.26-1.01,2.26-2.26v-63.86h16.68c1.75,0,3.31-.98,4.07-2.56.76-1.58.55-3.4-.54-4.77L97.52,1.62ZM110.83,49.33c-1.25,0-2.26,1.01-2.26,2.26v63.86h-29.16v-63.86c0-1.25-1.01-2.26-2.26-2.26h-18.94S94,4.43,94,4.43l35.77,44.9h-18.94Z" fill="#a5a5a5"/><path d="M36.16,148.5H15.67c-1.25,0-2.26,1.01-2.26,2.26v13.49c0,1.25,1.01,2.26,2.26,2.26h20.49c1.25,0,2.26-1.01,2.26-2.26v-13.49c0-1.25-1.01-2.26-2.26-2.26ZM33.9,161.99h-15.98v-8.98h15.98v8.98Z" fill="#a5a5a5"/><path d="M36.16,171.02H15.67c-1.25,0-2.26,1.01-2.26,2.26v9.61c0,1.25,1.01,2.26,2.26,2.26h20.49c1.25,0,2.26-1.01,2.26-2.26v-9.61c0-1.25-1.01-2.26-2.26-2.26ZM33.9,180.63h-15.98v-5.1h15.98v5.1Z" fill="#a5a5a5"/><path d="M28.38,71.56c-1.21-1.51-3.74-1.51-4.94,0L.7,100.11c-.76.96-.91,2.24-.38,3.34.53,1.1,1.62,1.79,2.85,1.79h10.25v36.49c0,1.25,1.01,2.26,2.26,2.26h20.49c1.25,0,2.26-1.01,2.26-2.26v-36.49h10.24c1.22,0,2.31-.68,2.84-1.79.53-1.1.39-2.38-.37-3.34l-22.75-28.54ZM36.16,100.72c-1.25,0-2.26,1.01-2.26,2.26v36.49h-15.98v-36.49c0-1.25-1.01-2.26-2.26-2.26H5.98l19.93-25.02,19.93,25.02h-9.69Z" fill="#a5a5a5"/><path d="M172.34,148.5h-20.49c-1.25,0-2.26,1.01-2.26,2.26v13.49c0,1.25,1.01,2.26,2.26,2.26h20.49c1.25,0,2.26-1.01,2.26-2.26v-13.49c0-1.25-1.01-2.26-2.26-2.26ZM170.08,161.99h-15.98v-8.98h15.98v8.98Z" fill="#a5a5a5"/><path d="M172.34,171.02h-20.49c-1.25,0-2.26,1.01-2.26,2.26v9.61c0,1.25,1.01,2.26,2.26,2.26h20.49c1.25,0,2.26-1.01,2.26-2.26v-9.61c0-1.25-1.01-2.26-2.26-2.26ZM170.08,180.63h-15.98v-5.1h15.98v5.1Z" fill="#a5a5a5"/><path d="M187.31,100.11l-22.75-28.54c-1.2-1.51-3.73-1.51-4.94,0l-22.74,28.54c-.76.96-.91,2.24-.38,3.34.53,1.1,1.62,1.79,2.85,1.79h10.25v36.49c0,1.25,1.01,2.26,2.26,2.26h20.49c1.25,0,2.26-1.01,2.26-2.26v-36.49h10.25c1.23,0,2.32-.69,2.85-1.79.53-1.1.39-2.38-.38-3.34ZM172.34,100.72c-1.25,0-2.26,1.01-2.26,2.26v36.49h-15.98v-36.49c0-1.25-1.01-2.26-2.26-2.26h-9.69l19.93-25.01,19.93,25.01h-9.69Z" fill="#a5a5a5"/></svg>