<?xml version="1.0" encoding="UTF-8"?><svg id="Layer_1" xmlns="http://www.w3.org/2000/svg" viewBox="0 0 185.28 154.29"><path d="M123.47,53.28c1.51,0,2.74-1.1,2.74-2.62s-1.23-2.62-2.74-2.62h-51.28c-1.51,0-2.74,1.1-2.74,2.62s1.23,2.62,2.74,2.62h51.28Z" fill="#fff"/><path d="M131.49,110.15c1.51,0,2.74-1.1,2.74-2.62s-1.23-2.62-2.74-2.62h-45.13c-1.51,0-2.74,1.1-2.74,2.62s1.23,2.62,2.74,2.62h45.13Z" fill="#fff"/><path d="M127.92,32.35c1.51,0,2.74-1.1,2.74-2.62s-1.23-2.62-2.74-2.62H50.2c-1.51,0-2.74,1.1-2.74,2.62s1.23,2.62,2.74,2.62h77.72Z" fill="#fff"/><path d="M127.92,125.8c1.51,0,2.74-1.1,2.74-2.62s-1.23-2.62-2.74-2.62H50.2c-1.51,0-2.74,1.1-2.74,2.62s1.23,2.62,2.74,2.62h77.72Z" fill="#fff"/><path d="M134.72,72.12c1.51,0,2.74-1.1,2.74-2.62s-1.23-2.62-2.74-2.62H50.2c-1.51,0-2.74,1.1-2.74,2.62s1.23,2.62,2.74,2.62h84.52Z" fill="#fff"/><path d="M29.21,53.28h27.82c1.51,0,2.74-1.1,2.74-2.62s-1.23-2.62-2.74-2.62h-27.82c-1.51,0-2.74,1.1-2.74,2.62,0,1.51,1.23,2.62,2.74,2.62Z" fill="#fff"/><path d="M74.07,107.53c0-1.51-1.23-2.62-2.74-2.62h-27.82c-1.51,0-2.74,1.1-2.74,2.62s1.23,2.62,2.74,2.62h27.82c1.51,0,2.74-1.1,2.74-2.62Z" fill="#fff"/><path d="M42.21,69.5c0-1.51-1.23-2.62-2.74-2.62H2.92c-1.51,0-2.74,1.1-2.74,2.62s1.23,2.62,2.74,2.62h36.55c1.51,0,2.74-1.1,2.74-2.62Z" fill="#fff"/><path d="M123.47,91.31c1.51,0,2.74-1.45,2.74-2.97s-1.23-2.97-2.74-2.97H57.03c-1.51,0-2.74,1.45-2.74,2.97s1.23,2.97,2.74,2.97h66.44Z" fill="#fff"/><path d="M44.61,88.34c0-1.51-1.23-2.97-2.74-2.97H14.05c-1.51,0-2.74,1.45-2.74,2.97s1.23,2.97,2.74,2.97h27.82c1.51,0,2.74-1.45,2.74-2.97Z" fill="#fff"/><path d="M130.67,123.18c-.36,1.05-1.44,4.63-1.83,5.57-5.28,12.77-12.29,20.1-19.22,20.1-7.51,0-14.99-8.7-20.35-23l41.4-2.67Z" fill="#fff"/><path d="M130.12,28.13l-40.35-1.02c5.32-13.26,12.6-21.68,19.85-21.68s15.18,9.44,20.5,22.7Z" fill="#fff"/><path d="M179.98,77.2c0,19.52-3.13,37.84-8.81,51.57-5.28,12.77-12.28,20.09-19.22,20.09-3.26,0-6.51-1.57-9.66-4.67-3.11-3.06-5.97-7.43-8.51-13.01.04-.11.09-.21.13-.32,2.75-6.65,4.93-14.31,6.48-22.62.06-.2.1-.41.11-.62,1.72-9.48,2.63-19.79,2.63-30.42,0-17.39-2.51-34.38-7.06-47.88-.04-.16-.09-.32-.16-.48-.68-1.96-1.39-3.84-2.13-5.62,2.54-5.58,5.4-9.95,8.51-13.01,3.15-3.1,6.4-4.67,9.66-4.67,6.94,0,13.94,7.32,19.22,20.1,5.68,13.72,8.81,32.04,8.81,51.56Z" fill="#fff"/></svg>