<?xml version="1.0" encoding="UTF-8"?><svg id="Layer_1" xmlns="http://www.w3.org/2000/svg" viewBox="0 0 173.45 185.14"><path d="M60.71,162.12c0-1.55,1.26-2.81,2.81-2.81h46.49c1.55,0,2.81,1.26,2.81,2.81s-1.26,2.81-2.81,2.81h-46.49c-1.55,0-2.81-1.26-2.81-2.81Z" fill="#a5a5a5"/><path d="M156.19,144.75v29.17c0,6.19-5.04,11.23-11.23,11.23H28.51c-6.19,0-11.23-5.04-11.23-11.23v-29.17h5.61v29.17c0,3.1,2.52,5.61,5.61,5.61h116.46c3.1,0,5.61-2.52,5.61-5.61v-29.17h5.61Z" fill="#a5a5a5"/><path d="M152.25,43.43c-3.58-8.47-8.71-16.07-15.24-22.6-6.53-6.53-14.14-11.66-22.6-15.24-8.77-3.71-18.08-5.59-27.68-5.59s-18.91,1.88-27.68,5.59c-8.47,3.58-16.07,8.71-22.6,15.24-6.53,6.53-11.66,14.14-15.24,22.6-1.66,3.93-2.96,7.98-3.88,12.11h5.78C30.1,26.92,55.97,5.61,86.72,5.61s56.62,21.3,63.63,49.93h5.78c-.92-4.13-2.22-8.18-3.88-12.11Z" fill="#a5a5a5"/><path d="M144.57,55.54h-5.83c-2.55-8.56-7.22-16.39-13.64-22.8-10.25-10.25-23.88-15.9-38.38-15.9s-28.13,5.65-38.38,15.9c-6.42,6.42-11.09,14.24-13.64,22.8h-5.83c2.7-10.08,8.03-19.3,15.5-26.77,11.31-11.31,26.35-17.54,42.35-17.54s31.04,6.23,42.35,17.54c7.48,7.48,12.81,16.7,15.51,26.77Z" fill="#a5a5a5"/><path d="M164.87,55.55H8.58c-4.73,0-8.58,3.85-8.58,8.58v72.04c0,4.73,3.85,8.58,8.58,8.58h156.29c4.73,0,8.58-3.85,8.58-8.58v-72.04c0-4.73-3.85-8.58-8.58-8.58ZM167.84,136.16c0,1.64-1.33,2.97-2.97,2.97H8.58c-1.64,0-2.97-1.33-2.97-2.97v-72.04c0-1.64,1.33-2.97,2.97-2.97h156.29c1.64,0,2.97,1.33,2.97,2.97v72.04Z" fill="#a5a5a5"/><path d="M158.01,66.77H15.43c-2.32,0-4.21,1.89-4.21,4.21v58.32c0,2.32,1.89,4.21,4.21,4.21h142.57c2.32,0,4.21-1.89,4.21-4.21v-58.32c0-2.32-1.89-4.21-4.21-4.21ZM56.48,127.9H19.99c-1.74,0-3.15-1.41-3.15-3.15v-49.22c0-1.74,1.41-3.15,3.15-3.15h36.49c1.74,0,3.15,1.41,3.15,3.15v49.22c0,1.74-1.41,3.15-3.15,3.15ZM105.04,127.9h-36.65c-1.74,0-3.15-1.41-3.15-3.15v-49.22c0-1.74,1.41-3.15,3.15-3.15h36.65c1.74,0,3.15,1.41,3.15,3.15v49.22c0,1.74-1.41,3.15-3.15,3.15ZM153.46,127.9h-36.51c-1.74,0-3.15-1.41-3.15-3.15v-49.22c0-1.74,1.41-3.15,3.15-3.15h36.51c1.74,0,3.15,1.41,3.15,3.15v49.22c0,1.74-1.41,3.15-3.15,3.15Z" fill="#a5a5a5"/><path d="M112.82,162.12c0,1.55-1.26,2.81-2.81,2.81h-46.49c-1.55,0-2.81-1.26-2.81-2.81s1.26-2.81,2.81-2.81h46.49c1.55,0,2.81,1.26,2.81,2.81Z" fill="#a5a5a5"/><polygon points="52.87 91.5 46.96 85.59 38.31 94.24 29.66 85.59 23.75 91.5 32.4 100.15 23.75 108.8 29.66 114.71 38.31 106.06 46.96 114.71 52.87 108.8 44.22 100.15 52.87 91.5" fill="#a5a5a5"/><polygon points="101.27 91.5 95.37 85.59 86.72 94.24 78.07 85.59 72.16 91.5 80.81 100.15 72.16 108.8 78.07 114.71 86.72 106.06 95.37 114.71 101.27 108.8 92.62 100.15 101.27 91.5" fill="#a5a5a5"/><polygon points="149.78 91.5 143.87 85.59 135.22 94.24 126.57 85.59 120.66 91.5 129.31 100.15 120.66 108.8 126.57 114.71 135.22 106.06 143.87 114.71 149.78 108.8 141.13 100.15 149.78 91.5" fill="#a5a5a5"/></svg>