<?xml version="1.0" encoding="UTF-8"?><svg id="Layer_1" xmlns="http://www.w3.org/2000/svg" viewBox="0 0 184.14 160.25"><path d="M183.57,33.13c-.34-1.83-.77-3.61-1.35-5.34-.53-1.49-1.11-2.98-1.83-4.38-.72-1.39-1.54-2.79-2.36-4.09-5.19-7.79-13.46-13.27-23.27-14.76C133.76,1.54,112.7,0,92.07,0S50.39,1.54,29.33,4.57c-9.76,1.49-18.03,6.97-23.22,14.76-.82,1.3-1.63,2.69-2.36,4.09-.72,1.39-1.3,2.88-1.83,4.38-.58,1.73-1.01,3.51-1.35,5.34-.38,2.07-.58,4.23-.58,6.44v81.49c0,2.12.19,4.23.58,6.25.34,1.83.77,3.61,1.35,5.34.53,1.49,1.11,2.98,1.83,4.38.67,1.44,1.44,2.79,2.36,4.09,5.29,7.69,13.51,13.13,23.27,14.57,21.01,3.03,42.07,4.57,62.7,4.57s41.68-1.54,62.74-4.57c9.71-1.44,17.93-6.88,23.22-14.57.91-1.3,1.68-2.64,2.36-4.09.72-1.39,1.3-2.88,1.83-4.38.58-1.73,1.01-3.51,1.35-5.34.38-2.02.58-4.13.58-6.25V39.57c0-2.21-.19-4.38-.58-6.44ZM46.01,109.52c0-3.65,2.98-6.59,6.59-6.59h39.47c3.65,0,6.59,2.93,6.59,6.59s-2.93,6.59-6.59,6.59h-39.47c-3.61,0-6.59-2.93-6.59-6.59ZM52.6,86.88c-3.61,0-6.59-2.93-6.59-6.59s2.98-6.59,6.59-6.59h78.95c3.61,0,6.54,2.98,6.54,6.59s-2.93,6.59-6.54,6.59H52.6ZM121.11,109.52c0,3.65-2.93,6.59-6.54,6.59h-3.85c-3.61,0-6.54-2.93-6.54-6.59s2.93-6.59,6.54-6.59h3.85c3.61,0,6.54,2.93,6.54,6.59ZM46.01,51.06c0-3.61,2.98-6.59,6.59-6.59h3.85c3.61,0,6.54,2.98,6.54,6.59s-2.93,6.59-6.54,6.59h-3.85c-3.61,0-6.59-2.93-6.59-6.59ZM68.51,51.06c0-3.61,2.93-6.59,6.59-6.59h39.47c3.61,0,6.54,2.98,6.54,6.59s-2.93,6.59-6.54,6.59h-39.47c-3.65,0-6.59-2.93-6.59-6.59Z" fill="#fff"/></svg>