<?xml version="1.0" encoding="UTF-8"?><svg id="Layer_1" xmlns="http://www.w3.org/2000/svg" viewBox="0 0 148.65 185.14"><path d="M147.46,56.38L104.1,1.96c-2.09-2.62-6.47-2.61-8.56,0l-43.36,54.42c-1.32,1.65-1.57,3.87-.65,5.78.92,1.91,2.81,3.1,4.93,3.1h20.22v77.39c0,1.51,1.22,2.73,2.73,2.73h40.82c1.51,0,2.73-1.22,2.73-2.73v-77.39h20.22c2.12,0,4.01-1.19,4.93-3.1.92-1.91.67-4.13-.65-5.78Z" fill="#fff"/><path d="M34.4,80.18c-1.46-1.84-4.53-1.83-5.99,0L.85,114.77c-.93,1.16-1.11,2.71-.46,4.05.64,1.34,1.96,2.17,3.45,2.17h12.42v61.42c0,1.51,1.22,2.73,2.73,2.73h24.83c1.52,0,2.74-1.22,2.74-2.73v-61.42h12.41c1.49,0,2.81-.83,3.45-2.17.65-1.33.47-2.88-.45-4.05l-27.57-34.59Z" fill="#fff"/><rect x="76.68" y="156.37" width="46.28" height="28.77" rx="2.73" ry="2.73" fill="#fff"/></svg>